<?xml version="1.0" standalone="no"?>
<!DOCTYPE svg PUBLIC "-//W3C//DTD SVG 1.1//EN" "http://www.w3.org/Graphics/SVG/1.1/DTD/svg11.dtd" >
<svg xmlns="http://www.w3.org/2000/svg">
<metadata>Generated by IcoMoon</metadata>
<defs>
<font id="icon-barbc" horiz-adv-x="1024">
<font-face units-per-em="1024" ascent="960" descent="-64" />
<missing-glyph horiz-adv-x="1024" />
<glyph unicode="&#x20;" horiz-adv-x="512" d="" />
<glyph unicode="&#xe900;" d="M470.672 844.946c0 7.85 6.364 14.214 14.214 14.214h166.784c23.036 0 41.71 18.674 41.71 41.71v0c0 23.036-18.674 41.71-41.71 41.71h-282.016c-21.56 0-39.036-17.476-39.036-39.036v-911.488c0-21.56 17.476-39.036 39.036-39.036h285.396c21.168 0 38.332 17.16 38.332 38.332v0c0 21.168-17.16 38.332-38.332 38.332h-170.164c-7.85 0-14.214 6.364-14.214 14.214v801.048z" />
<glyph unicode="&#xe901;" d="M438.534-3.354c-21.56 0-39.036 15.936-39.036 35.594v831.126c0 19.658 17.476 35.594 39.036 35.594h254.752c0.030 0.638 0.096 1.268 0.096 1.912v0c0 23.036-18.674 41.71-41.71 41.71h-282.018c-21.56 0-39.036-17.476-39.036-39.036v-911.488c0-21.56 17.476-39.036 39.036-39.036h285.396c21.168 0 38.332 17.16 38.332 38.332v0c0 1.8-0.168 3.558-0.406 5.292h-254.442z" />
<glyph unicode="&#xe902;" d="M418.3 325.542h-37.6c-7.31 0-13.234 5.926-13.234 13.234v218.052c0 7.31 5.926 13.234 13.234 13.234h37.598c7.31 0 13.234-5.926 13.234-13.234v-218.050c0.002-7.31-5.924-13.236-13.232-13.236z" />
<glyph unicode="&#xe903;" d="M418.3 325.542h-18.8v244.52h18.8c7.31 0 13.234-5.926 13.234-13.234v-218.050c0-7.31-5.926-13.236-13.234-13.236z" />
<glyph unicode="&#xe904;" d="M655.050 47.1h-167.158v48.51h196.878c9.51 0 17.22 7.71 17.22 17.22s-7.71 17.22-17.22 17.22h-196.878v48.51h196.878c9.51 0 17.22 7.71 17.22 17.22s-7.71 17.22-17.22 17.22h-196.878v48.506h196.878c9.51 0 17.22 7.71 17.22 17.22s-7.71 17.22-17.22 17.22h-196.878v48.51h196.878c9.51 0 17.22 7.71 17.22 17.22s-7.71 17.22-17.22 17.22h-196.878v41.618h196.878c9.51 0 17.22 7.71 17.22 17.22s-7.71 17.22-17.22 17.22h-196.878v55.398h196.878c9.51 0 17.22 7.71 17.22 17.22s-7.71 17.22-17.22 17.22h-196.878v48.51h196.878c9.51 0 17.22 7.71 17.22 17.22s-7.71 17.22-17.22 17.22h-196.878v48.506h196.878c9.51 0 17.22 7.71 17.22 17.22s-7.71 17.22-17.22 17.22h-196.878v48.512h196.878c9.51 0 17.22 7.71 17.22 17.22s-7.71 17.22-17.22 17.22h-196.878v48.502h163.778c32.492 0 58.93 26.436 58.93 58.93 0 32.492-26.434 58.928-58.93 58.928h-282.016c-31.018 0-56.254-25.238-56.254-56.256v-104.844c0-9.51 7.71-17.22 17.22-17.22s17.22 7.71 17.22 17.22v104.844c0 12.028 9.788 21.816 21.816 21.816h282.018c13.502 0 24.492-10.986 24.492-24.492s-10.986-24.492-24.492-24.492h-181c-9.51 0-17.22-7.71-17.22-17.22v-813.734c0-18.178 14.788-32.966 32.966-32.966h168.632c11.64 0 21.112-9.47 21.112-21.11s-9.47-21.112-21.112-21.112h-285.398c-12.028 0-21.816 9.788-21.816 21.816v715.194c0 9.51-7.71 17.22-17.22 17.22s-17.22-7.71-17.22-17.22v-715.188c0-31.018 25.238-56.256 56.256-56.256h285.396c30.63 0 55.55 24.92 55.55 55.55 0 30.632-24.92 55.55-55.55 55.55z" />
<glyph unicode="&#xe905;" d="M428.823 809.196c0 27.804 22.54 50.344 50.344 50.344h129.61c45.9 0 83.108 37.21 83.108 83.108h-233.334c-70.736 0-128.076-57.344-128.076-128.076v-348.713c0-0.132 0.034-0.26 0.038-0.394h-0.038v-512.507c55.19 0 99.93 44.742 99.93 99.93v238.988c0 35.372 28.676 64.048 64.048 64.048h197.434c0 49.936-40.48 90.416-90.416 90.416h-122.302c-27.804 0-50.344 22.54-50.344 50.344 0 0 1.048 15.14 1.582 15.14l-1.584 297.371z" />
<glyph unicode="&#xe906;" d="M512.085 401.683c-30.166 0-54.622-24.454-54.622-54.622v-2.914c10.448 7.408 23.206 11.776 36.988 11.776h197.434c0 16.7-4.548 32.332-12.442 45.758l-167.358 0.002z" />
<glyph unicode="&#xe907;" d="M429.947 80.56c-22.012-20.276-57.706-4.172-57.706 25.754v388.787h0.034c-0.004 0.112-0.034 0.222-0.034 0.336v297.389c0 60.324 48.902 109.226 109.226 109.226h198.994c0-0.508-0.028-1.006-0.038-1.512 7.274 12.35 11.464 26.736 11.464 42.106h-233.336c-70.736 0-128.076-57.344-128.076-128.076v-348.713c0-0.132 0.034-0.26 0.038-0.394h-0.038v-512.507c55.19 0 99.93 44.742 99.93 99.93v28.096c-0.152-0.138-0.304-0.28-0.458-0.422z" />
<glyph unicode="&#xe908;" d="M372.983 325.999h-13.956c-6.548 0-11.858 5.31-11.858 11.858v219.894c0 6.548 5.31 11.858 11.858 11.858h13.956v-243.61z" />
<glyph unicode="&#xe909;" d="M386.939 325.999h-13.956v243.61h13.956c6.548 0 11.858-5.31 11.858-11.858v-219.894c0-6.55-5.31-11.858-11.858-11.858z" />
<glyph unicode="&#xe90a;" d="M692.705 759.94c9.474 0 17.156 7.682 17.156 17.156s-7.682 17.156-17.156 17.156h-245.906v15.14c0 18.3 14.888 33.188 33.188 33.188h129.61c55.286 0 100.264 44.98 100.264 100.264 0 9.474-7.682 17.156-17.156 17.156h-233.336c-80.082 0-145.232-65.15-145.232-145.232v-348.713c0-0.396 0.014-0.764 0.034-1.096 0.37-9.15 7.922-16.454 17.16-16.454 4.65 0 9.102 1.89 12.336 5.232 3.232 3.344 4.968 7.858 4.81 12.506-0.006 0.194-0.016 0.386-0.030 0.58v347.945c0 61.164 49.758 110.922 110.922 110.922h213.916c-7.57-28.078-33.254-48.798-63.69-48.798h-129.61c-37.218 0-67.5-30.28-67.5-67.5v-312.509c0-37.218 30.28-67.5 67.5-67.5h122.304c34.492 0 63.492-23.956 71.232-56.106h-178.25c-44.776 0-81.204-36.428-81.204-81.204v-238.986c0-39.762-28.184-73.066-65.622-80.988v401.561c0 9.474-7.682 17.156-17.156 17.156s-17.156-7.682-17.156-17.156v-420.503c0-9.474 7.682-17.156 17.156-17.156 64.562 0 117.088 52.524 117.088 117.088v238.984c0 25.856 21.036 46.892 46.892 46.892h197.434c9.474 0 17.156 7.682 17.156 17.156 0 59.314-48.258 107.572-107.572 107.572h-122.304c-18.3 0-33.188 14.888-33.188 33.188v15.14h245.906c9.474 0 17.156 7.682 17.156 17.156s-7.682 17.156-17.156 17.156h-245.902v48.328h245.906c9.474 0 17.156 7.682 17.156 17.156s-7.682 17.156-17.156 17.156h-245.906v48.326h245.906c9.474 0 17.156 7.682 17.156 17.156s-7.682 17.156-17.156 17.156h-245.906v48.328h245.906z" />
<glyph unicode="&#xe90b;" d="M345.648 758.817l-36.246 9.938c-18.65 5.032-29.69 24.226-24.658 42.876v0c5.032 18.65 24.226 29.69 42.876 24.658l36.152-9.914-18.124-67.558z" />
<glyph unicode="&#xe90c;" d="M335.194 834.191l-17.858-67.63 28.46-7.728 17.858 67.63z" />
<glyph unicode="&#xe90d;" d="M449.983 635.666l-28.446 75.882-59.7 11.55-6.756-15.4-6.748-15.254c-8.5-17.374-5.2-38.21 8.254-52.106 27.652-28.564 34.932-71.172 18.33-107.295l-9.104-19.81c-6.44-14.016 10.458-27.12 22.43-17.396l33.758 27.424c33.31 27.062 44.716 72.884 27.982 112.405z" />
<glyph unicode="&#xe90e;" d="M449.983 635.666l-28.446 75.882-59.7 11.55-10.036-22.816 47.916-9.27 29.010-74.476c14.538-34.326 7.83-73.406-16.012-100.817l9.288 7.546c33.308 27.058 44.716 72.88 27.98 112.401z" />
<glyph unicode="&#xe90f;" d="M822.005 796.571l-433.573 55.726c-11.31 1.454-21.95-5.68-24.906-16.692l-3.010-11.222-20.040-74.69c-2.8-10.434 2.116-21.4 11.766-26.254l243.423-47.054 0.562-73.674h123.625l67.532 112.555h22.734c10.454 0 19.564 7.114 22.098 17.254l8.982 35.93c3.308 13.234-5.668 26.384-19.194 28.122z" />
<glyph unicode="&#xe910;" d="M822.005 796.571l-433.573 55.726c-11.31 1.454-21.95-5.68-24.906-16.692l-3.010-11.222 314.706-39.378c36.346-4.55 56.388-44.592 38.238-76.41l-8.242-14.448-54.858-91.431h69.49l67.532 112.555h22.734c10.454 0 19.564 7.114 22.098 17.254l8.982 35.93c3.31 13.228-5.666 26.378-19.192 28.116z" />
<glyph unicode="&#xe911;" d="M719.854 598.442h-127.563v78.556c0 35.224 28.554 63.78 63.78 63.78v0c35.224 0 63.78-28.554 63.78-63.78v-78.556h0.002z" />
<glyph unicode="&#xe912;" d="M656.072 740.781v0c-6.564 0-12.894-0.994-18.852-2.834 26.020-8.040 44.926-32.282 44.926-60.946v-78.556h37.706v78.556c0.002 35.226-28.556 63.78-63.78 63.78z" />
<glyph unicode="&#xe913;" d="M759.62 602.716h-208.695c-11.55 0-20.914-9.364-20.914-20.914v-96.237c0-11.55 9.364-20.914 20.914-20.914h208.695c12.432 0 22.51 10.078 22.51 22.51v93.045c0.002 12.432-10.076 22.51-22.51 22.51z" />
<glyph unicode="&#xe914;" d="M759.62 602.716h-54.026c12.432 0 22.51-10.078 22.51-22.51v-93.045c0-12.432-10.078-22.51-22.51-22.51h54.026c12.432 0 22.51 10.078 22.51 22.51v93.045c0.002 12.432-10.076 22.51-22.51 22.51z" />
<glyph unicode="&#xe915;" d="M661.12 502.473c-20.114 0.33-39.784-1.322-58.834-4.75-0.082-0.014-0.162-0.018-0.244-0.034-140.813-25.462-247.617-148.669-247.617-296.822 0-100.193 48.862-188.961 124.041-243.817 3.658-2.67 8.104-6.192 12.632-6.192h228.935c-0.030-0.020-0.056 0.020-0.086 0h6.874c0.006 0 0.014 0 0.020 0h94.185c4.686 0 9.23 1.54 13.012 4.308 73.598 53.872 121.883 142.437 123.625 240.219 2.966 166.011-130.529 304.362-296.542 307.088z" />
<glyph unicode="&#xe916;" d="M661.12 502.473c-20.198 0.33-39.95-1.332-59.074-4.79 140.813-25.464 247.619-148.661 247.619-296.812 0-102.691-51.326-195.533-129.715-250.009h101.081c4.686 0 9.23 1.54 13.012 4.308 73.598 53.872 121.883 142.437 123.625 240.219 2.96 166.007-130.535 304.358-296.548 307.084z" />
<glyph unicode="&#xe917;" d="M590.011 109.353h132.125c30.12 20.932 49.84 55.778 49.84 95.235 0 64.012-51.892 115.901-115.901 115.901-64.012 0-115.901-51.892-115.901-115.901-0.006-39.458 19.716-74.302 49.836-95.235z" />
<glyph unicode="&#xe918;" d="M457.621 776.541c0-9.325-7.559-16.884-16.884-16.884s-16.884 7.559-16.884 16.884c0 9.325 7.559 16.884 16.884 16.884s16.884-7.559 16.884-16.884z" />
<glyph unicode="&#xe919;" d="M672.96 671.754c0-9.325-7.559-16.884-16.884-16.884s-16.884 7.559-16.884 16.884c0 9.325 7.559 16.884 16.884 16.884s16.884-7.559 16.884-16.884z" />
<glyph unicode="&#xe91a;" d="M656.26 337.238c-73.218 0-132.785-59.566-132.785-132.785 0-43.47 21.34-84.252 57.088-109.099 2.828-1.966 6.19-3.018 9.634-3.018h132.125c3.444 0 6.808 1.054 9.634 3.018 35.746 24.842 57.088 65.628 57.088 109.099 0 73.218-59.568 132.785-132.785 132.785zM716.8 126.103h-121.087c-24.184 18.718-38.476 47.64-38.476 78.35 0 54.6 44.418 99.019 99.019 99.019s99.019-44.418 99.019-99.019c0.004-30.714-14.288-59.634-38.474-78.35z" />
<glyph unicode="&#xe91b;" d="M192.489 806.857c1.216-0.266 2.428-0.394 3.624-0.394 7.762 0 14.75 5.386 16.476 13.28 1.992 9.108-3.776 18.108-12.886 20.1l-72.034 15.756c-9.102 1.988-18.108-3.778-20.1-12.886s3.776-18.108 12.886-20.1l72.034-15.756z" />
<glyph unicode="&#xe91c;" d="M82.98 851.795c0-9.325-7.559-16.884-16.884-16.884s-16.884 7.559-16.884 16.884c0 9.325 7.559 16.884 16.884 16.884s16.884-7.559 16.884-16.884z" />
<glyph unicode="&#xe91d;" d="M250.531 892.282l-31.142 25.888c-7.168 5.958-17.812 4.98-23.776-2.19-5.96-7.17-4.98-17.814 2.19-23.776l31.142-25.888c3.154-2.622 6.98-3.898 10.784-3.898 4.844 0 9.652 2.074 12.99 6.092 5.964 7.164 4.982 17.81-2.188 23.772z" />
<glyph unicode="&#xe91e;" d="M179.861 943.116c0-9.325-7.559-16.884-16.884-16.884s-16.884 7.559-16.884 16.884c0 9.325 7.559 16.884 16.884 16.884s16.884-7.559 16.884-16.884z" />
<glyph unicode="&#xe91f;" d="M213.113 773.167l-36.3-17.95c-8.358-4.132-11.784-14.258-7.652-22.616 2.944-5.954 8.928-9.402 15.148-9.402 2.512 0 5.064 0.562 7.47 1.752l36.3 17.95c8.358 4.132 11.784 14.258 7.652 22.616-4.136 8.354-14.26 11.786-22.618 7.65z" />
<glyph unicode="&#xe920;" d="M147.985 713.781c0-9.325-7.559-16.884-16.884-16.884s-16.884 7.559-16.884 16.884c0 9.325 7.559 16.884 16.884 16.884s16.884-7.559 16.884-16.884z" />
<glyph unicode="&#xe921;" d="M457.803 776.407c0-9.325-7.559-16.884-16.884-16.884s-16.884 7.559-16.884 16.884c0 9.325 7.559 16.884 16.884 16.884s16.884-7.559 16.884-16.884z" />
<glyph unicode="&#xe922;" d="M673.14 671.618c0-9.325-7.559-16.884-16.884-16.884s-16.884 7.559-16.884 16.884c0 9.325 7.559 16.884 16.884 16.884s16.884-7.559 16.884-16.884z" />
<glyph unicode="&#xe923;" d="M882.945 423.983c-24.854 25.244-53.122 45.818-83.74 61.32v32.298h-0.012c0.002 3.7-1.196 7.428-3.688 10.544-5.824 7.282-16.448 8.464-23.73 2.64-4.166-3.332-6.326-8.234-6.33-13.184h-0.008v-17.604c-33.842 12.404-69.878 19-106.887 19.26-38.654 0.272-76.254-6.3-111.469-19.118v79.928c0 3.102 2.526 5.628 5.628 5.628h207.103c3.102 0 5.628-2.526 5.628-5.628 0-9.324 7.56-16.884 16.882-16.884s16.884 7.56 16.884 16.884c0 21.72-17.674 39.394-39.394 39.394h-22.888v57.402c0 44.478-36.186 80.662-80.662 80.662-37.586 0-69.246-25.84-78.158-60.686l-219.393 42.444c-1.6 1.456-2.318 3.732-1.738 5.898l2.67 9.952c0 0.002 0 0.004 0 0.004l20.378 75.956c0.76 2.836 3.532 4.698 6.448 4.32l433.573-55.722c2.284-0.292 3.564-1.706 4.12-2.524s1.41-2.522 0.85-4.754l-8.984-35.93c-0.658-2.63-3.010-4.466-5.72-4.466h-22.734c-5.93 0-11.426-3.11-14.476-8.198l-12.272-20.454c-4.798-7.996-2.204-18.366 5.792-23.164 7.998-4.802 18.366-2.204 23.164 5.792l7.354 12.258h13.176c18.234 0 34.056 12.354 38.478 30.046l8.982 35.928c2.744 10.978 0.66 22.634-5.72 31.98s-16.476 15.534-27.702 16.978l-433.577 55.724c-16.81 2.154-32.892-6.744-40.368-21.36l-18.198 4.91c-27.614 7.446-56.126-8.958-63.574-36.564-3.608-13.374-1.79-27.35 5.114-39.358 6.906-12.008 18.074-20.608 31.448-24.214l18.008-4.858c-1.296-13.666 4.648-27.17 15.572-35.448l-5.576-12.6c-11.394-23.622-6.816-52.094 11.442-70.956 22.982-23.74 28.918-58.478 15.12-88.501l-9.104-19.81c-6.236-13.572-2.496-28.838 9.306-37.992 5.804-4.5 12.55-6.744 19.29-6.744 6.97 0 13.93 2.4 19.82 7.186l33.758 27.428c38.842 31.558 52.384 85.745 32.982 131.857l-17.814 45.74 127.597-24.686v-43.472h-22.886c-21.72 0-39.394-17.674-39.394-39.394v-93.045c0-0.48 0.028-0.956 0.046-1.434-29.726-14.954-57.224-34.682-81.536-58.822-60.678-60.252-94.093-140.525-94.093-226.031 0-101.371 48.96-197.615 130.975-257.456 6.53-4.764 14.34-7.282 22.582-7.282h329.93c8.272 0 16.222 2.618 22.984 7.568 39.248 28.726 71.89 66.63 94.401 109.611 23.26 44.41 35.768 94.537 36.172 144.963 0.68 84.8-31.934 165.007-91.831 225.839zM609.362 676.866c0 25.86 21.038 46.896 46.896 46.896s46.896-21.038 46.896-46.896v-57.402h-93.797v57.402h0.004zM331.41 780.225l-17.422 4.698c-4.666 1.258-8.56 4.26-10.972 8.446s-3.044 9.066-1.786 13.732c2.174 8.062 9.498 13.382 17.472 13.382 1.554 0 3.136-0.202 4.704-0.626l17.374-4.686-9.37-34.946zM411.542 536.232l-26.060-21.174 4.964 10.8c19.654 42.772 11.2 92.267-21.542 126.087-8.478 8.758-10.576 21.998-5.218 32.944 0.094 0.194 0.186 0.39 0.272 0.588l7.5 16.95 37.352-7.226 25.628-65.796c0.060-0.154 0.122-0.304 0.186-0.456 13.722-32.4 4.228-70.528-23.082-92.717zM824.259-29.186c-0.938-0.686-1.988-1.050-3.038-1.050h-329.93c-1.028 0-1.978 0.282-2.68 0.794-73.33 53.508-117.111 139.555-117.111 230.177 0 76.442 29.874 148.205 84.12 202.071 24.5 24.33 52.628 43.64 83.148 57.474 0.822 0.3 1.636 0.644 2.426 1.082 0.050 0.026 0.094 0.060 0.142 0.088 35.736 15.768 74.684 24.046 114.911 24.046 0.686 0 1.382-0.002 2.066-0.006 75.768-0.534 146.999-30.79 200.571-85.198 53.566-54.404 82.734-126.101 82.126-201.883-0.716-89.523-44.36-174.605-116.753-227.595z" />
<glyph unicode="&#xe924;" d="M877.367 611.415l-27.162 57.014c-4.984 10.464-17.506 14.904-27.97 9.92l-16.806-8.006c-0.050-0.024-0.102-0.038-0.152-0.062l-53.804-25.642c-10.464-4.984-14.904-17.506-9.92-27.97l27.16-57.014 108.654 51.76z" />
<glyph unicode="&#xe925;" d="M850.205 668.427c-4.984 10.464-17.506 14.904-27.97 9.92l-30.422-14.492c9.994 3.524 21.238-0.992 25.898-10.772l27.16-57.014 32.494 15.344-27.16 57.014z" />
<glyph unicode="&#xe926;" d="M431.918 892.646c0 10.294-8.346 18.64-18.64 18.64h-75.052c-10.294 0-18.64-8.346-18.64-18.64v-196.021h112.332v196.021z" />
<glyph unicode="&#xe927;" d="M413.276 911.286h-37.31c10.294 0 18.64-8.346 18.64-18.64v-196.021h37.31v196.021c0.002 10.296-8.346 18.64-18.64 18.64z" />
<glyph unicode="&#xe928;" d="M486.474 698.797h-221.451c-13.294 0-24.070-10.776-24.070-24.070v-99.49c0-13.294 10.776-24.070 24.070-24.070h221.449c13.294 0 24.070 10.776 24.070 24.070v99.49c0.002 13.294-10.774 24.070-24.068 24.070z" />
<glyph unicode="&#xe929;" d="M486.474 698.797h-70.292c13.294 0 24.070-10.776 24.070-24.070v-99.49c0-13.294-10.776-24.070-24.070-24.070h70.29c13.294 0 24.070 10.776 24.070 24.070v99.49c0.002 13.294-10.774 24.070-24.068 24.070z" />
<glyph unicode="&#xe92a;" d="M375.851 624.981c-22.24 0-43.95-2.252-64.944-6.484-0.33-0.060-0.672-0.096-0.996-0.164-149.099-30.51-261.255-162.431-261.255-320.549 0-111.388 55.674-211.025 140.699-270.119h372.991c85.026 59.090 140.701 158.727 140.701 270.119 0.002 180.707-146.491 327.197-327.195 327.197z" />
<glyph unicode="&#xe92b;" d="M375.851 624.981c-23.122 0-45.68-2.414-67.448-6.976 148.345-31.090 259.749-162.639 259.749-320.221 0-111.388-55.678-211.025-140.701-270.119h134.899c85.024 59.090 140.701 158.727 140.701 270.119-0.002 180.707-146.495 327.197-327.199 327.197z" />
<glyph unicode="&#xe92c;" d="M305.213 214.075h141.279c32.206 22.384 53.294 59.642 53.294 101.832 0 68.446-55.486 123.93-123.93 123.93s-123.93-55.486-123.93-123.93c-0.006-42.192 21.082-79.45 53.288-101.832z" />
<glyph unicode="&#xe92d;" d="M561.768 28.934h-372.037c-20.628 0-37.352-16.724-37.352-37.352v-0.382c0-20.628 16.724-37.352 37.352-37.352h372.035c20.628 0 37.352 16.724 37.352 37.352v0.382c0.002 20.628-16.722 37.352-37.35 37.352z" />
<glyph unicode="&#xe92e;" d="M561.768 28.934h-132.387c20.628 0 37.352-16.724 37.352-37.352v-0.382c0-20.628-16.724-37.352-37.352-37.352h132.387c20.628 0 37.352 16.724 37.352 37.352v0.382c0 20.628-16.724 37.352-37.352 37.352z" />
<glyph unicode="&#xe92f;" d="M393.812 841.652c0-9.97-8.082-18.052-18.052-18.052s-18.052 8.082-18.052 18.052c0 9.97 8.082 18.052 18.052 18.052s18.052-8.082 18.052-18.052z" />
<glyph unicode="&#xe930;" d="M985.328 548.966c-21.214 44.53-64.342 71.522-110.324 74.29-0.658 0.046-1.29 0.114-1.966 0.142-20.73 0.934-41.984-3.064-62.024-12.61-65.208-31.066-92.888-109.108-61.822-174.315 12.588-26.426 32.894-46.69 56.936-59.376 0.258-0.138 0.512-0.244 0.77-0.374 35.14-18.252 78.106-20.414 116.608-2.072 65.206 31.062 92.884 109.104 61.822 174.315z" />
<glyph unicode="&#xe931;" d="M985.328 548.966c-21.516 45.166-65.574 72.304-112.29 74.414 24.036-12.688 44.342-32.946 56.928-59.37 31.066-65.206 3.386-143.253-61.822-174.315-20.040-9.548-41.296-13.526-62.024-12.592 35.28-18.62 78.602-20.93 117.386-2.452 65.206 31.062 92.884 109.104 61.822 174.315z" />
<glyph unicode="&#xe932;" d="M294.929 199.457c3.026-2.102 6.62-3.228 10.302-3.228h141.279c3.682 0 7.276 1.126 10.302 3.228 38.224 26.564 61.042 70.174 61.042 116.656 0 78.292-63.692 141.985-141.985 141.985s-141.985-63.692-141.985-141.985c0.002-46.482 22.822-90.090 61.044-116.656zM375.871 421.994c58.382 0 105.878-47.496 105.878-105.878 0-32.842-15.282-63.764-41.144-83.78h-129.475c-25.862 20.014-41.144 50.938-41.144 83.78 0.006 58.38 47.504 105.878 105.884 105.878z" />
<glyph unicode="&#xe933;" d="M115.648 806.231c0.046 0 0.094 0 0.14 0l78.844 0.602c9.97 0.078 17.99 8.22 17.916 18.19-0.078 9.924-8.142 17.916-18.050 17.916-0.046 0-0.094 0-0.14 0l-78.844-0.602c-9.97-0.078-17.99-8.22-17.916-18.19 0.078-9.926 8.142-17.916 18.050-17.916z" />
<glyph unicode="&#xe934;" d="M70.258 823.789c0-9.97-8.082-18.052-18.052-18.052s-18.052 8.082-18.052 18.052c0 9.97 8.082 18.052 18.052 18.052s18.052-8.082 18.052-18.052z" />
<glyph unicode="&#xe935;" d="M52.2 921.42c0-9.97-8.082-18.052-18.052-18.052s-18.052 8.082-18.052 18.052c0 9.97 8.082 18.052 18.052 18.052s18.052-8.082 18.052-18.052z" />
<glyph unicode="&#xe936;" d="M44 708.613c0-9.97-8.082-18.052-18.052-18.052s-18.052 8.082-18.052 18.052c0 9.97 8.082 18.052 18.052 18.052s18.052-8.082 18.052-18.052z" />
<glyph unicode="&#xe937;" d="M179.995 897.092l38.596-19.632c2.622-1.334 5.416-1.964 8.172-1.964 6.576 0 12.918 3.608 16.106 9.872 4.52 8.886 0.98 19.756-7.908 24.274l-38.596 19.632c-8.884 4.518-19.756 0.982-24.274-7.908-4.522-8.886-0.982-19.756 7.904-24.274z" />
<glyph unicode="&#xe938;" d="M149.681 941.948c0-9.97-8.082-18.052-18.052-18.052s-18.052 8.082-18.052 18.052c0 9.97 8.082 18.052 18.052 18.052s18.052-8.082 18.052-18.052z" />
<glyph unicode="&#xe939;" d="M224.105 776.579l-33.61-27.302c-7.738-6.288-8.916-17.656-2.628-25.394 3.568-4.392 8.774-6.67 14.024-6.67 4 0 8.026 1.322 11.374 4.042l33.61 27.302c7.738 6.288 8.916 17.656 2.628 25.394s-17.658 8.914-25.398 2.628z" />
<glyph unicode="&#xe93a;" d="M170.679 695.255c0-9.97-8.082-18.052-18.052-18.052s-18.052 8.082-18.052 18.052c0 9.97 8.082 18.052 18.052 18.052s18.052-8.082 18.052-18.052z" />
<glyph unicode="&#xe93b;" d="M393.836 841.844c0-9.97-8.082-18.052-18.052-18.052s-18.052 8.082-18.052 18.052c0 9.97 8.082 18.052 18.052 18.052s18.052-8.082 18.052-18.052z" />
<glyph unicode="&#xe93c;" d="M1001.646 556.936c-35.296 74.088-124.288 105.652-198.379 70.356-13.208-6.292-25.034-14.314-35.4-23.632l-9.994 20.978c-0.43 0.906-0.3 1.718-0.116 2.24 0.186 0.522 0.596 1.234 1.502 1.666l70.764 33.71c1.458 0.7 3.21 0.074 3.906-1.384 4.286-9 15.058-12.818 24.064-8.532 9.002 4.29 12.822 15.060 8.532 24.064-4.484 9.414-12.368 16.518-22.196 20.002-9.828 3.486-20.424 2.934-29.838-1.55l-22.438-10.69c-35.016 58.96-85.156 107.298-145.965 140.397-60.488 32.924-127.9 48.726-196.099 46.248v22.042c0 20.234-16.46 36.696-36.692 36.696h-75.052c-20.234 0-36.692-16.462-36.692-36.696v-175.797h-36.506c-23.226 0-42.124-18.898-42.124-42.124v-67.484c-113.848-56.498-192.299-173.979-192.299-309.457 0-102.338 45.5-198.951 123.106-264.265-11.854-10.204-19.382-25.3-19.382-42.13 0-30.656 24.94-55.596 55.596-55.596h371.655c30.656 0 55.596 24.94 55.596 55.596 0 16.782-7.486 31.84-19.28 42.042 77.668 65.314 123.206 161.971 123.206 264.351 0 190.371-154.879 345.249-345.249 345.249-40.994 0-80.334-7.198-116.844-20.368v52.062c0 3.316 2.7 6.018 6.018 6.018h221.445c3.316 0 6.018-2.7 6.018-6.018 0-9.97 8.082-18.052 18.052-18.052s18.052 8.082 18.052 18.052c0 23.226-18.898 42.124-42.124 42.124h-36.506v117.632c62.172 2.494 123.68-11.82 178.841-41.844 54.098-29.442 98.852-72.198 130.469-124.288l-15.568-7.416c-19.434-9.258-27.712-32.598-18.454-52.032l16.952-35.586c-26.926-41.926-32.278-96.414-9.318-144.611 25.48-53.492 78.954-84.814 134.599-84.814 21.428 0 43.18 4.646 63.78 14.456 74.096 35.302 105.658 124.296 70.362 198.385zM685.015 297.991c0-100.164-48.706-194.189-130.415-252.205-6.496-2.732-11.058-9.156-11.058-16.646 0-9.97 8.082-18.052 18.052-18.052 10.748 0 19.49-8.742 19.49-19.49s-8.742-19.49-19.49-19.49h-371.651c-10.748 0-19.49 8.742-19.49 19.49s8.742 19.49 19.49 19.49h282.781c9.97 0 18.052 8.082 18.052 18.052s-8.082 18.052-18.052 18.052h-277.601c-80.504 58.122-128.393 151.451-128.393 250.797 0 170.463 138.683 309.143 309.143 309.143 170.461 0.002 309.141-138.681 309.141-309.141zM337.655 717.057v175.793c0 0.324 0.262 0.59 0.588 0.59h75.052c0.324 0 0.588-0.264 0.588-0.59v-40.91c0-0.008 0-0.016 0-0.024v-134.859h-76.228zM973.524 455.246c-10.064-28.378-30.578-51.14-57.762-64.090-15.604-7.432-32.074-10.952-48.306-10.95-42.144 0.002-82.648 23.726-101.948 64.238-12.95 27.182-14.54 57.784-4.474 86.162 3.958 11.162 9.554 21.434 16.512 30.604 0.020 0.026 0.040 0.050 0.060 0.078 10.73 14.11 24.726 25.57 41.19 33.412 15.604 7.432 32.074 10.95 48.306 10.95 42.142 0 82.648-23.726 101.948-64.238 12.948-27.19 14.54-57.788 4.474-86.166z" />
<glyph unicode="&#xe93d;" d="M513.152-46.936v0c-34.322 0-62.144 27.822-62.144 62.144v297.3h124.29v-297.298c-0.004-34.324-27.826-62.146-62.146-62.146z" />
<glyph unicode="&#xe93e;" d="M451.008 312.508v-69.050c44.914 0 81.324-36.41 81.324-81.324v-206.038c24.932 8.086 42.964 31.486 42.964 59.114v297.298h-124.288z" />
<glyph unicode="&#xe93f;" d="M530.416 22.076c0-9.534-7.728-17.262-17.262-17.262s-17.262 7.728-17.262 17.262c0 9.534 7.728 17.262 17.262 17.262s17.262-7.728 17.262-17.262z" />
<glyph unicode="&#xe940;" d="M795.498 613.9c0-181.497-126.41-328.63-282.344-328.63s-282.344 147.133-282.344 328.63c0 181.497 126.41 328.63 282.344 328.63s282.344-147.133 282.344-328.63z" />
<glyph unicode="&#xe941;" d="M760.030 611.552c0-160.015-110.53-289.732-246.876-289.732s-246.876 129.717-246.876 289.732c0 160.015 110.53 289.732 246.876 289.732s246.876-129.717 246.876-289.732z" />
<glyph unicode="&#xe942;" d="M719.888 613.9c0-139.93-92.558-253.366-206.734-253.366s-206.734 113.436-206.734 253.366c0 139.93 92.558 253.366 206.734 253.366s206.734-113.436 206.734-253.366z" />
<glyph unicode="&#xe943;" d="M444.41 374.886l247.54 366.264c-11.604 24.442-26.446 46.286-43.81 64.652l-263.7-390.18c17.828-17.402 38.052-31.266 59.97-40.736z" />
<glyph unicode="&#xe944;" d="M510.576 360.564l205.228 303.658c-2.692 16.38-6.678 32.186-11.814 47.258l-233.53-345.536c12.968-3.336 26.38-5.176 40.116-5.38z" />
<glyph unicode="&#xe945;" d="M529.266 22.282c0-9.534-7.728-17.262-17.262-17.262s-17.262 7.728-17.262 17.262c0 9.534 7.728 17.262 17.262 17.262s17.262-7.728 17.262-17.262z" />
<glyph unicode="&#xe946;" d="M811.598 614.098c0 190.732-134.4 345.902-299.596 345.902-165.2 0-299.6-155.17-299.6-345.902 0-159 93.408-293.266 220.192-333.546v-265.144c0-43.784 35.622-79.408 79.408-79.408s79.408 35.622 79.408 79.408v197.056c0 9.534-7.726 17.262-17.262 17.262s-17.262-7.73-17.262-17.262v-197.056c0-24.748-20.134-44.882-44.882-44.882s-44.882 20.134-44.882 44.882v256.67c14.646-2.55 29.632-3.882 44.882-3.882 165.194 0 299.594 155.17 299.594 345.902zM512.002 302.72c-146.162 0-265.074 139.682-265.074 311.378 0 171.694 118.912 311.378 265.074 311.378s265.072-139.682 265.072-311.378-118.91-311.378-265.072-311.378z" />
<glyph unicode="&#xe947;" d="M512.002 884.736c-123.514 0-224-121.408-224-270.638s100.486-270.638 224-270.638 223.998 121.408 223.998 270.638-100.486 270.638-223.998 270.638zM512.002 377.982c-104.48 0-189.474 105.92-189.474 236.114s84.996 236.116 189.474 236.116c104.476 0 189.472-105.92 189.472-236.114s-84.996-236.116-189.472-236.116z" />
<glyph unicode="&#xe948;" d="M762.313 832.218h-720.415c-31.8-56.592-32.344-125.542-1.444-182.632l1.444-2.668h373.461c32.582 0 63.876 12.742 87.19 35.5v0c23.314 22.762 54.606 35.5 87.19 35.5h283.183c62.484 0 117.218 41.868 133.574 102.174v0l-45.026 27.712-24.638-23.42c-37.092-35.256-93.186-41.342-136.976-14.866l-37.544 22.7z" />
<glyph unicode="&#xe949;" d="M799.85 809.522l-17.622 10.654c1.742-7.656 1.784-15.652-0.084-23.58-6.216-26.41-13.080-52.642-20.574-78.674h80.908c5.526 20.17 10.73 40.44 15.526 60.822 1.126 4.78 1.952 9.598 2.524 14.428-20.84-0.356-41.89 4.99-60.678 16.35z" />
<glyph unicode="&#xe94a;" d="M650.359 717.922c10.444 33.728 19.778 67.826 27.904 102.25 1.010 4.278 2.544 8.288 4.44 12.048h-81.716c-9.43-39.224-20.472-78.006-33.062-116.252 7.156 1.272 14.45 1.956 21.816 1.956l60.62-0.002z" />
<glyph unicode="&#xe94b;" d="M640.341 829.124c-61.35-259.883-188.888-494.197-363.829-684.187-22.93-24.902-23.102-63.158-0.284-88.162l36.602-40.106c25.664-28.122 69.964-28.45 95.84-0.52 198.076 213.808 342.365 478.149 411.409 771.518 12.458 52.936-23.858 104.99-77.772 112.13v0c-47.126 6.242-91.046-24.41-101.966-70.674z" />
<glyph unicode="&#xe94c;" d="M742.305 899.8v0c-0.632 0.084-1.262 0.136-1.896 0.206 16.618-21.102 24.012-49.268 17.32-77.702-69.042-293.371-213.332-557.713-411.411-771.522-12.378-13.36-28.97-20.236-45.724-20.716l12.228-13.4c25.664-28.122 69.964-28.45 95.84-0.52 198.078 213.81 342.369 478.149 411.411 771.52 12.462 52.938-23.856 104.994-77.768 112.134z" />
<glyph unicode="&#xe94d;" d="M349.393 101.108c0-10.76-8.722-19.482-19.482-19.482s-19.482 8.722-19.482 19.482c0 10.76 8.722 19.482 19.482 19.482s19.482-8.722 19.482-19.482z" />
<glyph unicode="&#xe94e;" d="M19.158 715.966c2.884-22.924 9.968-45.45 21.298-66.38l1.444-2.668h373.461c32.582 0 63.876 12.742 87.19 35.5v0c18.044 17.614 40.874 29.194 65.374 33.544l-548.767 0.004z" />
<glyph unicode="&#xe94f;" d="M1015.668 835.006l-45.026 27.71c-6.76 4.164-15.48 3.254-21.234-2.22l-24.64-23.42c-22.888-21.754-54.478-30.666-84.858-24.596-0.752 20.602-7.322 40.834-19.25 58.12-17.608 25.518-45.328 42.486-76.058 46.554-56.108 7.424-108.242-28.69-121.302-84.008-7.766-32.896-16.672-65.48-26.634-97.718h-6.93c-37.37 0-72.676-14.376-99.42-40.482-20.164-19.682-46.782-30.522-74.96-30.522h-362.853c-23.3 47.694-23.27 102.708-0.028 150.29h507.705c9.67 0 17.506 7.838 17.506 17.506s-7.836 17.506-17.506 17.506h-518.283c-6.328 0-12.162-3.414-15.26-8.93-34.952-62.2-35.54-136.794-1.578-199.54l1.444-2.67c3.062-5.65 8.97-9.17 15.396-9.17h373.461c37.37 0 72.676 14.376 99.418 40.482 19.108 18.654 44.020 29.346 70.554 30.416-67.47-200.694-177.164-386.547-321.701-543.517-29.316-31.838-29.46-79.91-0.338-111.82l36.604-40.108c15.57-17.062 37.752-26.898 60.854-26.986 0.106 0 0.206 0 0.308 0 22.894 0 44.912 9.6 60.446 26.368 184.006 198.622 319.075 437.849 393.775 696.169h57.638c70.216 0 132.092 47.33 150.47 115.098 2.030 7.486-1.11 15.42-7.72 19.488zM395.823 28.044c-9.056-9.774-21.392-15.152-34.754-15.15-0.060 0-0.126 0-0.186 0-13.532 0.052-26.008 5.584-35.126 15.574l-36.604 40.108c-16.788 18.396-16.688 46.13 0.234 64.506 180.020 195.504 307.267 434.803 367.991 692.023 8.132 34.458 38.436 58.002 72.71 58.002 3.272 0 6.586-0.214 9.92-0.656 20.944-2.772 39.834-14.34 51.836-31.73 10.136-14.692 14.538-31.846 12.816-49.168-0.030-0.22-0.046-0.438-0.068-0.66-0.334-3.070-0.836-6.144-1.556-9.21-66.886-284.215-207.698-548.277-407.213-763.639zM872.92 735.426h-47.938c3.734 14.022 7.292 28.1 10.668 42.222 40.666-7.294 82.652 4.976 113.24 34.048l14.878 14.14 21.796-13.414c-17.91-45.914-62.538-76.996-112.644-76.996z" />
<glyph unicode="&#xe950;" d="M349.393 101.108c0-10.76-8.722-19.482-19.482-19.482s-19.482 8.722-19.482 19.482c0 10.76 8.722 19.482 19.482 19.482s19.482-8.722 19.482-19.482z" />
<glyph unicode="&#xe951;" d="M587.943 652.989h-149.542l20.568-110.888 2.328-4.208c7.65-13.836 7.762-30.612 0.294-44.548l-2.622-4.894v-480.797c0-21.958 13.068-40.854 31.84-49.37 7.022-3.166 14.66-4.812 22.364-4.83 0.002 0 0.008 0 0.010 0 29.932 0.004 54.194 24.27 54.194 54.204v483.959l-1.172 2.032c-8.702 15.098-8.25 33.79 1.172 48.45l20.566 110.89z" />
<glyph unicode="&#xe952;" d="M587.943 652.989h-44.726c0 0-20.522-141.954-21.74-159.34-8.304-118.826 1.172-485.997 1.172-485.997 0-21.958-13.064-40.854-31.84-49.37 6.82-3.094 14.388-4.83 22.364-4.83v0c29.936 0 54.204 24.268 54.204 54.204v483.961l-1.172 2.032c-8.702 15.098-8.25 33.79 1.172 48.45l20.566 110.89z" />
<glyph unicode="&#xe953;" d="M368.019 787.366l-21.126-39.648c0-17.206 10.892-31.154 24.332-31.154v0c13.436 0 24.332-13.948 24.332-31.154v-22.426c0-7.27 5.894-13.164 13.164-13.164h208.91c7.27 0 13.164 5.894 13.164 13.164v22.426c0 17.206 10.892 31.154 24.332 31.154v0c13.436 0 24.332 13.948 24.332 31.154l-24.242 39.648h-287.199z" />
<glyph unicode="&#xe954;" d="M346.893 787.366v-39.648c0-2.052 0.164-4.054 0.462-5.996h331.639c0.296 1.942 0.462 3.942 0.462 5.996v39.648h-332.563z" />
<glyph unicode="&#xe955;" d="M530.833 716.57c0-9.751-7.905-17.656-17.656-17.656s-17.656 7.905-17.656 17.656c0 9.751 7.905 17.656 17.656 17.656s17.656-7.905 17.656-17.656z" />
<glyph unicode="&#xe956;" d="M768.498 783.308h-510.717l-2.146 3.588c-8.734 14.602-14.774 30.13-18.116 46.012-7.488 35.578 20.252 51.376 36.928 56.072l488.265 4.148c0 0 33.61-21.826 26.554-58.070-3.498-17.942-10.42-35.468-20.768-51.75v0z" />
<glyph unicode="&#xe957;" d="M255.634 865.956l2.146 3.588h510.715c8.682-13.66 14.944-28.194 18.802-43.118 10.028 38.792 3.768 80.208-18.802 115.716v0h-510.715l-2.146-3.588c-20.76-34.704-26.27-74.636-16.574-112.13 3.52 13.622 9.034 26.924 16.574 39.532z" />
<glyph unicode="&#xe958;" d="M746.327 876.362h-462.365c-7.53 0-13.636-6.106-13.636-13.636v0h489.637c0 7.532-6.106 13.636-13.636 13.636z" />
<glyph unicode="&#xe959;" d="M746.327 919.942h-462.365c-7.53 0-13.636-6.106-13.636-13.636v0h489.637c0 7.532-6.106 13.636-13.636 13.636z" />
<glyph unicode="&#xe95a;" d="M746.327 832.782h-462.365c-7.53 0-13.636-6.106-13.636-13.636v0h489.637c0 7.53-6.106 13.636-13.636 13.636z" />
<glyph unicode="&#xe95b;" d="M529.749 716.758c0-9.751-7.905-17.656-17.656-17.656s-17.656 7.905-17.656 17.656c0 9.751 7.905 17.656 17.656 17.656s17.656-7.905 17.656-17.656z" />
<glyph unicode="&#xe95c;" d="M782.314 951.816c-3.242 5.096-8.862 8.184-14.902 8.184h-510.715c-6.212 0-11.966-3.266-15.156-8.594l-2.142-3.582c-31.798-53.158-31.798-116.63 0-169.784l2.144-3.588c3.188-5.332 8.942-8.594 15.156-8.594h71.456v-17.938c0-26.914 18.834-48.808 41.984-48.808 2.292 0 6.676-5.256 6.676-13.496v-22.426c0-16.994 13.826-30.818 30.818-30.818h15.082l17.83-93.374c0.348-1.832 0.988-3.596 1.89-5.228l2.328-4.214c4.772-8.63 4.842-18.972 0.182-27.666l-2.62-4.894c-1.372-2.564-2.092-5.428-2.092-8.336v-480.797c0-39.622 32.234-71.858 71.856-71.858s71.858 32.236 71.858 71.858v483.957c0 3.096-0.814 6.136-2.362 8.82l-1.17 2.030c-5.428 9.416-5.15 20.946 0.728 30.090 1.224 1.9 2.070 4.016 2.492 6.234l17.826 93.374h15.080c16.994 0 30.818 13.826 30.818 30.818v22.426c0 8.24 4.384 13.496 6.676 13.496 23.152 0 41.986 21.894 41.986 48.808v17.938h71.386c6.038 0 11.66 3.088 14.9 8.184 34.854 54.828 34.854 122.95 0.006 177.778zM266.849 924.69h490.471c7.58-14.008 12.382-28.934 14.494-44.108h-519.583c2.136 15.13 6.978 30.030 14.618 44.108zM549.541 548.699c-10.78-19.044-11.142-42.096-0.904-61.512v-479.329c0-20.152-16.396-36.548-36.548-36.548s-36.546 16.396-36.546 36.548v476.365l0.528 0.984c10.346 19.302 10.192 42.268-0.402 61.428l-0.966 1.746-16.038 83.986h106.852l-15.976-83.668zM660.713 747.92c0-8.242-4.384-13.498-6.676-13.498-23.152 0-41.986-21.894-41.986-48.806v-17.938h-199.924v17.938c0 26.914-18.834 48.806-41.986 48.806-2.292 0-6.674 5.256-6.674 13.498v17.938h297.249v-17.938zM757.319 801.164h-490.469c-7.642 14.078-12.484 28.978-14.616 44.108h519.581c-2.114-15.174-6.916-30.098-14.496-44.108z" />
<glyph unicode="&#xe95d;" d="M615.071-45.826h-206.14c-25.8 0-46.716 20.916-46.716 46.716v149.132h169.584c57.576 0 104.252-46.674 104.252-104.252v-44.882c0.002-25.798 4.82-46.714-20.98-46.714z" />
<glyph unicode="&#xe95e;" d="M362.217 202.849v-62.196h140.652c57.882 0 104.804-46.922 104.804-104.804v-81.676h7.4c25.8 0 46.716 20.916 46.716 46.716v201.96h-299.571z" />
<glyph unicode="&#xe95f;" d="M587.895 195.917h-235.19c-15.376 0-28.262 11.63-29.832 26.924l-70.216 683.321c-1.96 19.076 13.008 35.66 32.184 35.66h370.917c19.176 0 34.144-16.584 32.184-35.66l-70.214-683.321c-1.57-15.296-14.456-26.924-29.834-26.924z" />
<glyph unicode="&#xe960;" d="M739.159 941.824h-128.848c19.176 0 34.144-16.584 32.184-35.66l-70.214-683.323c-1.572-15.296-14.458-26.924-29.832-26.924h128.848c15.376 0 28.262 11.63 29.832 26.924l70.214 683.321c1.96 19.076-13.006 35.662-32.184 35.662z" />
<glyph unicode="&#xe961;" d="M607.631 438.639h-192.26c-9.53 0-17.256 7.726-17.256 17.256v269.569c0 9.53 7.726 17.256 17.256 17.256h192.26c9.53 0 17.256-7.726 17.256-17.256v-269.567c0-9.53-7.726-17.258-17.256-17.258z" />
<glyph unicode="&#xe962;" d="M776.666 943.324c-9.562 10.596-23.232 16.674-37.508 16.674h-286.283c-10.040 0-18.174-8.138-18.174-18.174s8.134-18.174 18.174-18.174h286.283c4.064 0 7.802-1.662 10.526-4.68 2.724-3.020 3.994-6.906 3.58-10.95l-70.214-683.321c-0.62-6.048-5.676-10.61-11.756-10.61h-318.589c-6.080 0-11.134 4.56-11.756 10.61l-70.212 683.321c-0.416 4.042 0.856 7.932 3.58 10.95 2.724 3.016 6.462 4.68 10.526 4.68h80.572c10.040 0 18.174 8.138 18.174 18.174s-8.134 18.176-18.174 18.176h-80.572c-14.276 0-27.946-6.078-37.51-16.674s-14.212-24.82-12.756-39.020l70.214-683.321c2.23-21.71 18.478-38.702 39.248-42.454v-177.642c0-35.78 29.11-64.89 64.89-64.89h206.138c35.782 0 64.89 29.11 64.89 64.89v116.492c0 10.038-8.134 18.174-18.174 18.174s-18.174-8.138-18.174-18.174v-116.492c0-15.736-12.804-28.542-28.542-28.542h-206.138c-15.736 0-28.542 12.804-28.542 28.542v176.852h290.905c24.782 0 45.382 18.592 47.912 43.244l70.214 683.321c1.462 14.198-3.186 28.422-12.752 39.018z" />
<glyph unicode="&#xe963;" d="M436.101 53.092c-10.040 0-18.174-8.138-18.174-18.174 0-10.038 8.134-18.174 18.174-18.174h151.796c10.040 0 18.174 8.138 18.174 18.174 0 10.038-8.134 18.174-18.174 18.174h-151.796z" />
<glyph unicode="&#xe964;" d="M379.943 457.303c0-20.312 16.524-36.836 36.836-36.836h189.45c20.312 0 36.836 16.524 36.836 36.836v266.755c0 20.312-16.524 36.836-36.836 36.836h-189.45c-20.312 0-36.836-16.524-36.836-36.836v-266.755zM416.291 724.058c0 0.268 0.218 0.488 0.488 0.488h189.45c0.268 0 0.488-0.218 0.488-0.488v-266.755c0-0.268-0.218-0.488-0.488-0.488h-189.45c-0.268 0-0.488 0.218-0.488 0.488v266.755z" />
<glyph unicode="&#xe965;" d="M743.852 337.26c0 0-72.386-350.136-239.036-383.804v0h-8.324c-71.184 0-139.624 27.454-191.074 76.648v0c-67.124 64.18-94.426 159.562-71.438 249.54l15.152 59.298 494.72-1.682z" />
<glyph unicode="&#xe966;" d="M203.972 351.852h56.76v175.626h-56.76c-12.106 0-21.92-9.814-21.92-21.92v-131.782c-0.002-12.11 9.814-21.924 21.92-21.924z" />
<glyph unicode="&#xe967;" d="M789.010 527.476h-61.36v-175.626h61.36c12.106 0 21.92 9.814 21.92 21.92v131.782c0.002 12.11-9.812 21.924-21.92 21.924z" />
<glyph unicode="&#xe968;" d="M767.328 279.642l-23.478 57.616-100.252 1.682 15.152-59.298c22.992-89.976-4.314-185.358-71.438-249.54v0c-39.214-37.494-88.304-62.342-140.948-72.050 16.426-3.028 33.196-4.598 50.124-4.598h8.324c71.184 0 139.624 27.454 191.074 76.648v0c67.126 64.18 94.432 159.564 71.442 249.54z" />
<glyph unicode="&#xe969;" d="M249.13 693.458v-354.516l57.062-26.85c26.836-12.628 54.614-22.444 82.914-29.482 4.996-1.242 10.24-0.108 14.332 3.016 24.274 18.532 57.008 29.906 93.052 29.906 36.31 0 69.276-11.54 93.602-30.318 4.076-3.146 9.316-4.31 14.318-3.090 27.958 6.816 55.422 16.332 81.988 28.602l-1.466 26.53-5.050 347.192-430.752 9.010z" />
<glyph unicode="&#xe96a;" d="M249.13 693.458v-190.626c0 44.164 26.278 90.044 58.92 120.252 6.324 5.85 16.546 2.854 18.65-5.5 13.042-51.784 44.67-87.458 106.208-87.458h80.926c28.556 0 53.456-0.748 78.35-1.45 38.054-1.070 68.342-32.228 68.342-70.296v-57.84c0-38.58-22.428-73.64-57.452-89.814v0c-10.53-4.864-21.208-9.276-31.996-13.278 6.79-3.626 13.166-7.718 19.028-12.244 4.072-3.144 9.31-4.298 14.306-3.082 27.958 6.816 55.424 16.332 81.99 28.602l57.452 26.53v347.198l-494.724 9.006z" />
<glyph unicode="&#xe96b;" d="M359.282 942.546c-22.12 0-40.054-17.934-40.054-40.054v-0.89c-84.732 0-153.42-68.69-153.42-153.42v-102.772c0-57.914 34.11-68.834 83.326-91.838v16.596c0 44.162 26.274 90.042 58.914 120.248 6.324 5.854 16.552 2.854 18.656-5.502 13.044-51.782 44.672-87.454 106.208-87.454h80.926c155.802 0 282.104 126.304 282.104 282.106v62.98h-436.66z" />
<glyph unicode="&#xe96c;" d="M199.646 684.912c-2.104 8.354-12.332 11.354-18.656 5.502-5.254-4.864-10.342-10.138-15.186-15.742v-29.264c0-57.914 34.11-107.834 83.326-130.842v55.598c0 12.618 2.152 25.378 5.978 37.872-29.308 14.238-46.642 41.864-55.462 76.876z" />
<glyph unicode="&#xe96d;" d="M732.412 942.546v-62.98c0-155.802-126.304-282.106-282.106-282.106h127.056c155.802 0 282.106 126.304 282.106 282.106v62.98h-127.056z" />
<glyph unicode="&#xe96e;" d="M609.88 473.274c0-10.459-8.479-18.938-18.938-18.938s-18.938 8.479-18.938 18.938c0 10.459 8.479 18.938 18.938 18.938s18.938-8.479 18.938-18.938z" />
<glyph unicode="&#xe96f;" d="M404.52 473.274c0-10.459-8.479-18.938-18.938-18.938s-18.938 8.479-18.938 18.938c0 10.459 8.479 18.938 18.938 18.938s18.938-8.479 18.938-18.938z" />
<glyph unicode="&#xe970;" d="M876.922 879.562v62.984c0 9.64-7.816 17.454-17.454 17.454-9.64 0-17.454-7.814-17.454-17.454v-62.982c0-145.93-118.722-264.65-264.65-264.65h-144.454c-23.802 0-96.226 0-96.226 138.426v9.24c0.512 28.482 0.352 56.82 0.17 84.614-0.072 10.856-0.14 21.936-0.17 33.024v22.272c0 12.46 10.138 22.6 22.6 22.6h410.010c9.64 0 17.454 7.814 17.454 17.454s-7.816 17.456-17.456 17.456h-410.010c-25.96 0-47.952-17.298-55.072-40.97l-1.218-0.006c-3.082-0.028-5.792-0.664-8.118-1.734-55.724-8.258-106.57-44.816-131.224-96.246-1.46-2.94-7.324-17.020-7.504-17.468-5.854-14.63-5.904-28.662-5.904-41.068-0.336-8.936-0.802-17.874-1.298-27.326-2.898-55.256-6.178-117.884 21.694-171.032 4.476-8.536 15.028-11.83 23.564-7.352s11.83 15.028 7.352 23.564c-23.426 44.67-20.54 99.738-17.748 152.992 0.486 9.278 1.346 48.34 4.536 56.704 1.336 2.77 2.54 5.778 3.706 8.698 1.012 2.53 2.058 5.144 2.898 6.824 0.046 0.090 0.090 0.184 0.134 0.274 19.952 41.718 61.446 71.192 106.678 77.174 0.002-1.062 0.010-2.118 0.012-3.18v-117.506c-0.346-18.686-0.986-37.378-2.156-55.924-2.798-1.36-19.716-16.8-20.916-18-25.276-25.274-41.468-58.466-46.83-95.984-0.042-0.296-0.076-0.592-0.102-0.886-1.476-16.23-1.186-31.662-0.744-46.612h-27.052c-21.714 0-39.376-17.664-39.376-39.376v-131.782c0-21.714 17.664-39.376 39.376-39.376h25.982l-12.886-50.432c-24.514-95.94 4.718-198.046 76.286-266.478 54.96-52.552 127.1-81.492 203.14-81.492 1.438 0 6.888 0 8.324 0 76.036 0 148.18 28.94 203.138 81.488 71.568 68.432 100.802 170.538 76.286 266.478-0.198 0.77-20.372 50.432-20.372 50.432h25.144c21.714 0 39.376 17.664 39.376 39.376v131.782c0 21.714-17.664 39.376-39.376 39.376h-27.704v94.448c0 1.242-0.136 2.45-0.382 3.622 70.53 54.858 115.996 140.496 115.996 236.56zM199.504 373.772v131.782c0 2.464 2.004 4.466 4.466 4.466h27.704v-140.716h-27.702c-2.466 0.002-4.468 2.006-4.468 4.468zM683.828 42.72c-48.43-46.308-112.004-71.81-179.012-71.81-1.438 0-6.888 0-8.324 0-67.006 0-130.58 25.502-179.012 71.81-62.47 59.732-87.984 148.86-66.588 232.604l9.922 38.832 37.948-17.858c30.184-14.204 62.036-25.192 94.664-32.666 5.43-1.242 11.124 0.18 15.332 3.826 22.44 19.458 54.418 30.618 87.734 30.618 33.578 0 65.722-11.298 88.19-31.002 3.216-2.818 7.316-4.332 11.508-4.332 1.27 0 2.554 0.14 3.82 0.424 18.892 4.236 37.674 9.686 55.824 16.2 12.81 4.598 25.558 9.816 37.888 15.512l40.864 18.87 16.124-39.566c20.874-83.41-4.694-172-66.882-231.462zM789.010 510.022c2.464 0 4.466-2.004 4.466-4.466v-131.782c0-2.464-2.004-4.466-4.466-4.466h-27.704v140.714h27.704zM726.398 527.476v-179.054l-47.316-21.85c-11.404-5.266-23.194-10.094-35.044-14.348-14.156-5.082-28.732-9.466-43.436-13.062-28.326 21.872-64.924 33.824-104.11 33.824-38.858 0-75.238-11.788-103.486-33.36-27.326 6.822-53.99 16.312-79.378 28.258l-47.038 22.134v177.458c0 0.872-0.086 1.724-0.21 2.564-0.094 3.828-0.204 7.604-0.318 11.31-0.486 15.906-0.95 30.938 0.438 46.582 4.234 29.042 16.452 54.662 35.394 74.27 4.58 2.992 7.646 6.716 9.994 9.57 0.090 0.11 0.172 0.204 0.26 0.314 4.296-14.374 9.908-27.15 16.848-38.234 22.368-35.732 57.332-53.848 103.92-53.848h144.454c54.218 0 105.118 14.478 149.036 39.774v-92.302h-0.008z" />
<glyph unicode="&#xe971;" d="M548.322 557.978c-38.204 0-69.286-31.080-69.286-69.286v-103.236c0-9.64 7.816-17.454 17.454-17.454s17.454 7.814 17.454 17.454v103.236c0 18.956 15.42 34.376 34.376 34.376 9.64 0 17.454 7.816 17.454 17.454s-7.812 17.456-17.452 17.456z" />
<glyph unicode="&#xe972;" d="M609.88 473.274c0-10.459-8.479-18.938-18.938-18.938s-18.938 8.479-18.938 18.938c0 10.459 8.479 18.938 18.938 18.938s18.938-8.479 18.938-18.938z" />
<glyph unicode="&#xe973;" d="M404.52 473.274c0-10.459-8.479-18.938-18.938-18.938s-18.938 8.479-18.938 18.938c0 10.459 8.479 18.938 18.938 18.938s18.938-8.479 18.938-18.938z" />
<glyph unicode="&#xe974;" d="M545.026 234.924c-14.462-3.996-29.482-6.114-44.642-6.292-17.702-0.216-35.268 2.23-52.090 7.244-9.242 2.754-18.958-2.504-21.716-11.738-2.756-9.236 2.502-18.96 11.738-21.716 19.398-5.784 39.558-8.712 59.966-8.712 0.836 0 1.674 0.004 2.512 0.014 18.162 0.214 36.17 2.756 53.528 7.552 9.292 2.568 14.744 12.18 12.174 21.474-2.568 9.292-12.182 14.738-21.47 12.174z" />
<glyph unicode="&#xe975;" d="M512.002 942.502v0c-101.172 0-183.19-82.016-183.19-183.188v-229.284c0-66.364 35.3-124.458 88.142-156.584 29.080-17.68 46.606-49.462 46.606-83.494v-288.412c0-17.492 9.27-32.816 23.166-41.33 0.478-0.294 0.958-0.54 1.44-0.754 7.044-4.006 15.15-6.354 23.834-6.354v0c26.752 0 48.44 21.688 48.44 48.44v288.412c0 26.806 10.91 52.184 29.738 70.406-0.028-0.014-0.058-0.028-0.086-0.042 5.090 4.936 10.754 9.36 16.954 13.13 52.84 32.128 88.142 90.22 88.142 156.584v229.282c0 101.172-82.014 183.188-183.186 183.188z" />
<glyph unicode="&#xe976;" d="M509.976 237.59v-236.048c0-17.496-9.306-32.778-23.208-41.292 7.356-4.504 15.976-7.148 25.232-7.148v0c26.752 0 48.44 21.688 48.44 48.44v288.412c0 26.806 10.91 52.184 29.738 70.406-36.184-17.278-80.202-47.21-80.202-122.77z" />
<glyph unicode="&#xe977;" d="M522.706 391.806h-21.412c-70.030 0-126.798 56.768-126.798 126.798v252.138c0 70.030 56.768 126.798 126.798 126.798h21.412c70.028 0 126.798-56.768 126.798-126.798v-252.138c0.002-70.030-56.768-126.798-126.798-126.798z" />
<glyph unicode="&#xe978;" d="M515.002 414.608h-6.002c-60.364 0-109.3 48.936-109.3 109.3v241.526c0 60.366 48.936 109.3 109.3 109.3h6.002c60.366 0 109.3-48.936 109.3-109.3v-241.524c0-60.366-48.934-109.302-109.3-109.302z" />
<glyph unicode="&#xe979;" d="M529.308 814.52c0-9.555-7.745-17.3-17.3-17.3s-17.3 7.745-17.3 17.3c0 9.555 7.745 17.3 17.3 17.3s17.3-7.745 17.3-17.3z" />
<glyph unicode="&#xe97a;" d="M498.352 764.35c0-9.555-7.745-17.3-17.3-17.3s-17.3 7.745-17.3 17.3c0 9.555 7.745 17.3 17.3 17.3s17.3-7.745 17.3-17.3z" />
<glyph unicode="&#xe97b;" d="M470.096 706.108c0-9.555-7.745-17.3-17.3-17.3s-17.3 7.745-17.3 17.3c0 9.555 7.745 17.3 17.3 17.3s17.3-7.745 17.3-17.3z" />
<glyph unicode="&#xe97c;" d="M529.308 706.108c0-9.555-7.745-17.3-17.3-17.3s-17.3 7.745-17.3 17.3c0 9.555 7.745 17.3 17.3 17.3s17.3-7.745 17.3-17.3z" />
<glyph unicode="&#xe97d;" d="M590.042 706.108c0-9.555-7.745-17.3-17.3-17.3s-17.3 7.745-17.3 17.3c0 9.555 7.745 17.3 17.3 17.3s17.3-7.745 17.3-17.3z" />
<glyph unicode="&#xe97e;" d="M470.096 592.298c0-9.555-7.745-17.3-17.3-17.3s-17.3 7.745-17.3 17.3c0 9.555 7.745 17.3 17.3 17.3s17.3-7.745 17.3-17.3z" />
<glyph unicode="&#xe97f;" d="M529.308 592.298c0-9.555-7.745-17.3-17.3-17.3s-17.3 7.745-17.3 17.3c0 9.555 7.745 17.3 17.3 17.3s17.3-7.745 17.3-17.3z" />
<glyph unicode="&#xe980;" d="M529.308 478.326c0-9.555-7.745-17.3-17.3-17.3s-17.3 7.745-17.3 17.3c0 9.555 7.745 17.3 17.3 17.3s17.3-7.745 17.3-17.3z" />
<glyph unicode="&#xe981;" d="M590.042 592.298c0-9.555-7.745-17.3-17.3-17.3s-17.3 7.745-17.3 17.3c0 9.555 7.745 17.3 17.3 17.3s17.3-7.745 17.3-17.3z" />
<glyph unicode="&#xe982;" d="M560.056 764.35c0-9.555-7.745-17.3-17.3-17.3s-17.3 7.745-17.3 17.3c0 9.555 7.745 17.3 17.3 17.3s17.3-7.745 17.3-17.3z" />
<glyph unicode="&#xe983;" d="M498.352 647.864c0-9.555-7.745-17.3-17.3-17.3s-17.3 7.745-17.3 17.3c0 9.555 7.745 17.3 17.3 17.3s17.3-7.745 17.3-17.3z" />
<glyph unicode="&#xe984;" d="M560.056 647.864c0-9.555-7.745-17.3-17.3-17.3s-17.3 7.745-17.3 17.3c0 9.555 7.745 17.3 17.3 17.3s17.3-7.745 17.3-17.3z" />
<glyph unicode="&#xe985;" d="M498.352 533.478c0-9.555-7.745-17.3-17.3-17.3s-17.3 7.745-17.3 17.3c0 9.555 7.745 17.3 17.3 17.3s17.3-7.745 17.3-17.3z" />
<glyph unicode="&#xe986;" d="M560.056 533.478c0-9.555-7.745-17.3-17.3-17.3s-17.3 7.745-17.3 17.3c0 9.555 7.745 17.3 17.3 17.3s17.3-7.745 17.3-17.3z" />
<glyph unicode="&#xe987;" d="M641.6 524.108v241.524c0 69.808-56.792 126.6-126.6 126.6h-6.002c-69.808 0-126.6-56.794-126.6-126.6v-241.524c0-69.808 56.794-126.6 126.6-126.6h6.002c69.808 0 126.6 56.794 126.6 126.6zM515.002 432.108h-6.002c-50.73 0-92 41.272-92 92v241.524c0 50.73 41.272 92 92 92h6.002c50.73 0 92-41.272 92-92v-241.524c-0.002-50.728-41.272-92-92-92z" />
<glyph unicode="&#xe988;" d="M512.002 960c-110.548 0-200.488-89.938-200.488-200.488v-229.284c0-70.586 36.058-134.648 96.454-171.368 23.62-14.362 38.292-40.688 38.292-68.71v-288.41c0-36.248 29.49-65.74 65.74-65.74 36.248 0 65.74 29.49 65.74 65.74v192.53c0 9.554-7.746 17.3-17.3 17.3s-17.3-7.746-17.3-17.3v-192.53c0-17.17-13.97-31.14-31.14-31.14s-31.14 13.97-31.14 31.14v288.412c0 40.022-21.044 77.678-54.92 98.274-49.986 30.39-79.828 83.402-79.828 141.804v229.282c0 91.47 74.418 165.888 165.888 165.888s165.888-74.418 165.888-165.888v-229.284c0-58.402-29.844-111.412-79.83-141.802-33.876-20.596-54.92-58.252-54.92-98.274 0-9.554 7.746-17.3 17.3-17.3s17.3 7.746 17.3 17.3c0 28.022 14.672 54.352 38.292 68.71 60.398 36.72 96.454 100.782 96.454 171.366v229.284c0.004 110.55-89.934 200.488-200.482 200.488z" />
<glyph unicode="&#xe989;" d="M529.308 814.714c0-9.555-7.745-17.3-17.3-17.3s-17.3 7.745-17.3 17.3c0 9.555 7.745 17.3 17.3 17.3s17.3-7.745 17.3-17.3z" />
<glyph unicode="&#xe98a;" d="M498.352 764.534c0-9.555-7.745-17.3-17.3-17.3s-17.3 7.745-17.3 17.3c0 9.555 7.745 17.3 17.3 17.3s17.3-7.745 17.3-17.3z" />
<glyph unicode="&#xe98b;" d="M470.096 706.292c0-9.555-7.745-17.3-17.3-17.3s-17.3 7.745-17.3 17.3c0 9.555 7.745 17.3 17.3 17.3s17.3-7.745 17.3-17.3z" />
<glyph unicode="&#xe98c;" d="M529.308 706.292c0-9.555-7.745-17.3-17.3-17.3s-17.3 7.745-17.3 17.3c0 9.555 7.745 17.3 17.3 17.3s17.3-7.745 17.3-17.3z" />
<glyph unicode="&#xe98d;" d="M590.042 706.292c0-9.555-7.745-17.3-17.3-17.3s-17.3 7.745-17.3 17.3c0 9.555 7.745 17.3 17.3 17.3s17.3-7.745 17.3-17.3z" />
<glyph unicode="&#xe98e;" d="M470.096 592.504c0-9.555-7.745-17.3-17.3-17.3s-17.3 7.745-17.3 17.3c0 9.555 7.745 17.3 17.3 17.3s17.3-7.745 17.3-17.3z" />
<glyph unicode="&#xe98f;" d="M529.308 592.504c0-9.555-7.745-17.3-17.3-17.3s-17.3 7.745-17.3 17.3c0 9.555 7.745 17.3 17.3 17.3s17.3-7.745 17.3-17.3z" />
<glyph unicode="&#xe990;" d="M529.308 478.51c0-9.555-7.745-17.3-17.3-17.3s-17.3 7.745-17.3 17.3c0 9.555 7.745 17.3 17.3 17.3s17.3-7.745 17.3-17.3z" />
<glyph unicode="&#xe991;" d="M590.042 592.504c0-9.555-7.745-17.3-17.3-17.3s-17.3 7.745-17.3 17.3c0 9.555 7.745 17.3 17.3 17.3s17.3-7.745 17.3-17.3z" />
<glyph unicode="&#xe992;" d="M560.056 764.534c0-9.555-7.745-17.3-17.3-17.3s-17.3 7.745-17.3 17.3c0 9.555 7.745 17.3 17.3 17.3s17.3-7.745 17.3-17.3z" />
<glyph unicode="&#xe993;" d="M498.352 648.048c0-9.555-7.745-17.3-17.3-17.3s-17.3 7.745-17.3 17.3c0 9.555 7.745 17.3 17.3 17.3s17.3-7.745 17.3-17.3z" />
<glyph unicode="&#xe994;" d="M560.056 648.048c0-9.555-7.745-17.3-17.3-17.3s-17.3 7.745-17.3 17.3c0 9.555 7.745 17.3 17.3 17.3s17.3-7.745 17.3-17.3z" />
<glyph unicode="&#xe995;" d="M498.352 533.662c0-9.555-7.745-17.3-17.3-17.3s-17.3 7.745-17.3 17.3c0 9.555 7.745 17.3 17.3 17.3s17.3-7.745 17.3-17.3z" />
<glyph unicode="&#xe996;" d="M560.056 533.662c0-9.555-7.745-17.3-17.3-17.3s-17.3 7.745-17.3 17.3c0 9.555 7.745 17.3 17.3 17.3s17.3-7.745 17.3-17.3z" />
<glyph unicode="&#xe997;" d="M513.14 942.712v0c-11.75 0-23.112-1.616-33.928-4.562-0.276-0.064-0.568-0.104-0.836-0.18-54.316-15.172-94.16-65.024-94.16-124.182v-8.444h257.843v8.446c0.002 71.202-57.718 128.923-128.919 128.923z" />
<glyph unicode="&#xe998;" d="M384.218 88.397v-6.582c0-59.156 39.844-109.006 94.158-124.182 0.492-0.136 0.978-0.24 1.464-0.344 10.628-2.84 21.776-4.398 33.298-4.398v0c71.202 0 128.923 57.72 128.923 128.923v6.582l-257.841 0.002z" />
<glyph unicode="&#xe999;" d="M642.061 165.557h-257.843v52.604l4.42 8.166 0.19 50.134-4.61 7.814v48.706l4.42 11.276 0.76 45.958-5.18 8.878v48.708l5.75 9.070 0.38 50.134-6.13 6.908v48.708l6.13 8.57-1.14 48.142-4.99 9.4v48.708l5.276 7.836-5.276 44.58h257.843v-3.71l-4.838-9.298-0.57-49.754 5.408-7.080v-48.688l-5.596-9.56-0.382-50.324 5.978-6.246v-48.688l-6.166-13.242-0.19-45.196 6.356-7.696v-48.684l-5.026-10.468v-46.336l5.026-9.332v-48.546l-5.026-8.778-0.952-49.754 5.978-7.602z" />
<glyph unicode="&#xe99a;" d="M578.542 165.557h63.518v35.318l-5.978 7.602 0.952 49.754 5.026 8.778v48.546l-5.026 9.332v46.336l5.026 10.468v48.684l-6.356 7.696 0.19 45.196 6.166 13.242v48.688l-5.978 6.246 0.382 50.324 5.596 9.56v48.688l-5.408 7.080 0.57 49.754 4.838 9.298v3.71h-63.518z" />
<glyph unicode="&#xe99b;" d="M513.14 942.712v0c-12.046 0-23.694-1.688-34.752-4.778 54.314-15.174 94.168-64.988 94.168-124.144v-8.446h69.504v8.446c0 71.202-57.72 128.923-128.921 128.923z" />
<glyph unicode="&#xe99c;" d="M384.218 733.941v-56.498l150.603 56.884z" />
<glyph unicode="&#xe99d;" d="M572.556 88.397v-6.582c0-59.154-39.856-108.97-94.168-124.144 11.062-3.090 22.706-4.778 34.752-4.778v0c71.202 0 128.923 57.72 128.923 128.923v6.582h-69.504z" />
<glyph unicode="&#xe99e;" d="M670.319 726.149h-314.359c-6.036 0-10.93 4.892-10.93 10.93v62.45c0 6.036 4.892 10.93 10.93 10.93h314.357c6.036 0 10.93-4.892 10.93-10.93v-62.45c0.002-6.036-4.894-10.93-10.928-10.93z" />
<glyph unicode="&#xe99f;" d="M642.061 267.007l-257.843-97.414v-66.112l257.843 97.39z" />
<glyph unicode="&#xe9a0;" d="M642.061 726.149l-257.843-97.414v-66.112l257.843 97.394z" />
<glyph unicode="&#xe9a1;" d="M670.319 85.145h-314.359c-6.036 0-10.93 4.892-10.93 10.93v62.452c0 6.036 4.892 10.93 10.93 10.93h314.357c6.036 0 10.93-4.892 10.93-10.93v-62.45c0.002-6.036-4.894-10.932-10.928-10.932z" />
<glyph unicode="&#xe9a2;" d="M670.317 810.459h-70.946c6.036 0 10.93-4.892 10.93-10.93v-62.45c0-6.036-4.892-10.93-10.93-10.93h70.946c6.036 0 10.93 4.892 10.93 10.93v62.45c0.002 6.038-4.894 10.93-10.93 10.93z" />
<glyph unicode="&#xe9a3;" d="M670.317 169.455h-70.946c6.036 0 10.93-4.892 10.93-10.93v-62.45c0-6.036-4.892-10.93-10.93-10.93h70.946c6.036 0 10.93 4.892 10.93 10.93v62.45c0.002 6.038-4.894 10.93-10.93 10.93z" />
<glyph unicode="&#xe9a4;" d="M642.061 496.51l-257.843-97.414v-66.114l257.843 97.394z" />
<glyph unicode="&#xe9a5;" d="M642.061 611.331l-257.843-97.416v-66.112l257.843 97.394z" />
<glyph unicode="&#xe9a6;" d="M642.061 381.69l-257.843-97.414v-66.112l257.843 97.392z" />
<glyph unicode="&#xe9a7;" d="M669.177 709.253c15.45 0 28.020 12.57 28.020 28.020v62.452c0 15.45-12.57 28.020-28.020 28.020h-11.82c-2.91 30.878-15.562 60.084-36.368 83.406-6.282 7.044-17.090 7.662-24.13 1.376-7.044-6.282-7.66-17.086-1.376-24.13 15.204-17.046 24.728-38.196 27.502-60.652h-221.977c6.806 55.194 53.986 98.070 110.992 98.070 9.438 0 17.092 7.652 17.092 17.092s-7.654 17.092-17.092 17.092c-75.87 0-138.387-58.172-145.345-132.253h-11.832c-15.45 0-28.020-12.57-28.020-28.020v-62.45c0-15.45 12.57-28.020 28.020-28.020h11.164v-522.51h-11.164c-15.45 0-28.020-12.57-28.020-28.020v-62.45c0-15.45 12.57-28.020 28.020-28.020h11.832c6.96-74.080 69.476-132.253 145.345-132.253s138.387 58.172 145.345 132.253h11.832c15.45 0 28.020 12.57 28.020 28.020v62.45c0 15.45-12.57 28.020-28.020 28.020h-11.164v522.506h11.164zM360.981 793.563h302.035v-50.128h-302.035v50.128zM400.17 387.478l223.661 84.5v-78.278l-223.661-84.5v78.278zM623.83 508.52l-223.661-84.5v78.278l223.661 84.5v-78.278zM512-29.822c-57.006 0-104.184 42.876-110.988 98.070h221.977c-6.804-55.192-53.986-98.070-110.988-98.070zM663.017 102.435h-302.035v50.128h302.035v-50.128zM400.17 186.743v85.914l223.661 84.5v-78.276l-106.778-40.34c-8.83-3.336-13.284-13.2-9.948-22.030 2.584-6.842 9.086-11.054 15.992-11.054 2.006 0 4.048 0.356 6.036 1.108l94.696 35.776v-55.594l-223.661-0.004zM623.83 623.341l-223.661-84.5v78.278l97.404 36.798c8.83 3.336 13.284 13.2 9.948 22.030-3.334 8.828-13.194 13.286-22.030 9.948l-85.322-32.234v55.594h223.661v-85.914z" />
<glyph unicode="&#xe9a8;" d="M595.428 728.59v131.788c0 45.45-36.844 82.294-82.294 82.294v0c-45.45 0-82.294-36.844-82.294-82.294v-131.786c0-123.686-40.55-244.73-118.562-340.712-36.162-44.492-57.838-101.232-57.838-163.038v-271.906h517.386v271.906c0 61.804-21.674 118.546-57.838 163.038-78.010 95.98-118.56 217.024-118.56 340.71z" />
<glyph unicode="&#xe9a9;" d="M529.122 865.078c0-9.462-7.67-17.132-17.132-17.132s-17.132 7.67-17.132 17.132c0 9.462 7.67 17.132 17.132 17.132s17.132-7.67 17.132-17.132z" />
<glyph unicode="&#xe9aa;" d="M529.122 802.332c0-9.462-7.67-17.132-17.132-17.132s-17.132 7.67-17.132 17.132c0 9.462 7.67 17.132 17.132 17.132s17.132-7.67 17.132-17.132z" />
<glyph unicode="&#xe9ab;" d="M770.684 152.172c-9.462 0-17.132-7.67-17.132-17.132v-164.774h-39.646v272.226c0 9.462-7.67 17.132-17.132 17.132s-17.132-7.67-17.132-17.132v-272.228h-39.646v272.228c0 9.462-7.67 17.132-17.132 17.132s-17.132-7.67-17.132-17.132v-272.228h-39.646v272.228c0 9.462-7.67 17.132-17.132 17.132s-17.132-7.67-17.132-17.132v-272.228h-39.646v272.228c0 9.462-7.67 17.132-17.132 17.132s-17.132-7.67-17.132-17.132v-272.228h-39.646v272.8c0 9.462-7.67 17.132-17.132 17.132s-17.132-7.67-17.132-17.132v-272.798h-39.646v272.798c0 9.462-7.67 17.132-17.132 17.132s-17.132-7.67-17.132-17.132v-272.798h-39.652v254.772c0 55.326 19.178 109.388 53.998 152.23 78.932 97.114 122.402 221.952 122.402 351.518v131.786c0 35.93 29.23 65.162 65.16 65.162s65.162-29.23 65.162-65.16v-131.788c0-129.568 43.47-254.404 122.4-351.518 34.824-42.842 54-96.906 54-152.23 0-9.462 7.67-17.132 17.132-17.132s17.132 7.67 17.132 17.132c0 63.172-21.902 124.912-61.676 173.844-73.98 91.024-114.724 208.184-114.724 329.906v131.786c0 54.826-44.602 99.426-99.428 99.426s-99.426-44.602-99.426-99.428v-131.786c0-121.718-40.742-238.882-114.726-329.906-39.772-48.932-61.674-110.672-61.674-173.844v-271.906c0-9.462 7.67-17.132 17.132-17.132h517.386c9.462 0 17.132 7.67 17.132 17.132v181.91c-0.004 9.462-7.674 17.132-17.138 17.132z" />
<glyph unicode="&#xe9ac;" d="M596.247-45.938h-165.808c-52.32 0-93.39 44.852-88.79 96.97l23.484 266.787h296.883l23.022-266.787c4.056-45.974-27.424-86.296-70.816-95.162-5.802-1.188-11.812-1.808-17.976-1.808z" />
<glyph unicode="&#xe9ad;" d="M537.163 51.706c0-10.090-8.18-18.27-18.27-18.27s-18.27 8.18-18.27 18.27c0 10.090 8.18 18.27 18.27 18.27s18.27-8.18 18.27-18.27z" />
<glyph unicode="&#xe9ae;" d="M689.779 941.522h-353.123c-43.758 0-76.842-39.612-69.046-82.67l98.176-474.363h294.479l98.562 474.363c7.792 43.056-25.292 82.67-69.048 82.67z" />
<glyph unicode="&#xe9af;" d="M689.779 941.522h-90.942c43.758 0 76.842-39.612 69.046-82.67l-98.562-474.363h90.94l98.562 474.363c7.796 43.056-25.288 82.67-69.044 82.67z" />
<glyph unicode="&#xe9b0;" d="M685.037 51.032l-23.022 266.787h-296.885l-5.456-61.982h10.18c127.074 0 233.032-97.206 243.956-223.81l3.71-42.978c1.018-11.546-0.214-22.734-3.304-33.16 43.392 8.866 74.878 49.168 70.822 95.142z" />
<glyph unicode="&#xe9b1;" d="M660.457 385.479h-294.479c-19.582 0-35.456-15.874-35.456-35.456v0c0-19.582 15.874-35.456 35.456-35.456h294.479c19.582 0 35.456 15.874 35.456 35.456v0c0 19.582-15.874 35.456-35.456 35.456z" />
<glyph unicode="&#xe9b2;" d="M660.457 385.479h-73.078c19.582 0 35.456-15.874 35.456-35.456s-15.874-35.456-35.456-35.456h73.076c19.582 0 35.456 15.874 35.456 35.456 0.002 19.582-15.872 35.456-35.454 35.456z" />
<glyph unicode="&#xe9b3;" d="M756.441 928.254c-16.852 20.176-41.594 31.746-67.88 31.746h-353.123c-26.286 0-51.028-11.57-67.878-31.746-16.85-20.174-23.828-46.582-19.144-72.446 0.030-0.154 0.056-0.31 0.090-0.462l94.74-455.901c-18.942-8.314-32.21-27.24-32.21-49.214 0-22.306 13.666-41.474 33.062-49.588l-21.864-247.798c-2.64-29.934 7.48-59.81 27.774-81.972s49.166-34.872 79.216-34.872h165.808c30.050 0 58.92 12.71 79.216 34.872s30.414 52.040 27.774 81.972l-21.872 247.894c19.27 8.17 32.824 27.28 32.824 49.492 0 29.626-24.104 53.726-53.728 53.726h-279.617l-95.3 458.573c-2.672 15.112 1.432 30.52 11.274 42.304 9.89 11.84 24.41 18.63 39.836 18.63h31.242l17.114-198.070c0.82-9.52 8.798-16.698 18.18-16.698 0.528 0 1.060 0.022 1.594 0.068 10.052 0.868 17.5 9.722 16.63 19.774l-16.846 194.924h47.086l2.21-89.566c0.246-9.934 8.374-17.818 18.254-17.818 0.154 0 0.306 0 0.458 0.004 10.090 0.248 18.062 8.628 17.814 18.714l-2.182 88.664h201.572c15.426 0 29.946-6.792 39.836-18.63 9.842-11.782 13.946-27.19 11.274-42.302l-78.922-380.301c-2.054-9.88 4.292-19.55 14.168-21.604 9.89-2.054 19.55 4.292 21.604 14.17l78.976 380.549c0.034 0.154 0.060 0.306 0.090 0.462 4.678 25.87-2.3 52.274-19.148 72.45zM647.293-4.452c-13.584-14.838-32.146-23.010-52.264-23.010h-165.81c-20.118 0-38.68 8.17-52.266 23.010-13.584 14.838-20.094 34.046-18.326 54.086l21.782 246.87h263.431l21.782-246.87c1.766-20.040-4.742-39.248-18.33-54.086zM676.429 350.229c0-9.478-7.712-17.188-17.19-17.188h-294.477c-9.478 0-17.19 7.712-17.19 17.188 0 9.462 7.688 17.16 17.144 17.186 0.010 0 0.018 0 0.026 0 0.024 0 0.046 0.002 0.070 0.002h294.427c9.478 0.002 17.19-7.71 17.19-17.188z" />
<glyph unicode="&#xe9b4;" d="M759.353 839.542l-56.976-17.154c-15.178-4.57-30.464 6.794-30.464 22.642v49.544c0 26.406-21.406 47.812-47.812 47.812h-221.886c-26.406 0-47.812-21.408-47.812-47.812v-49.544c0-15.85-15.286-27.212-30.464-22.642l-56.976 17.154c-17.446 5.252-35.016-7.81-35.016-26.028v-733.299c0-17.648 16.554-30.616 33.688-26.39l59.46 14.662c14.906 3.676 29.306-7.608 29.306-22.958v-44.5c0-26.406 21.406-47.814 47.812-47.814h221.888c26.406 0 47.812 21.406 47.812 47.814v44.5c0 15.352 14.402 26.634 29.306 22.958l59.46-14.662c17.134-4.224 33.688 8.744 33.688 26.39v733.299c0.002 18.218-17.568 31.278-35.014 26.028zM513.157 365.423c-45.496 0-82.378 36.882-82.378 82.378s36.882 82.378 82.378 82.378 82.378-36.882 82.378-82.378c0-45.496-36.882-82.378-82.378-82.378z" />
<glyph unicode="&#xe9b5;" d="M793.208 742.32c-9.62 0-17.416-7.798-17.416-17.416v-644.489c0-4.138-2.346-6.592-3.744-7.688s-4.332-2.784-8.36-1.794l-59.46 14.662c-12.33 3.044-25.148 0.29-35.152-7.544-10.004-7.836-15.738-19.62-15.738-32.324v-44.502c0-16.76-13.636-30.396-30.398-30.396h-221.888c-16.762 0-30.398 13.636-30.398 30.396v44.502c0 12.706-5.738 24.486-15.738 32.324-10.002 7.836-22.818 10.586-35.154 7.544l-59.456-14.662c-4.020-0.99-6.964 0.698-8.362 1.794-1.4 1.096-3.744 3.55-3.744 7.688v733.297c0 4.272 2.468 6.744 3.938 7.836 1.472 1.094 4.554 2.746 8.64 1.512l56.978-17.152c12.558-3.778 25.8-1.462 36.33 6.364 10.528 7.826 16.568 19.838 16.568 32.954v49.548c0 16.76 13.636 30.396 30.398 30.396h221.89c16.762 0 30.398-13.636 30.398-30.396v-49.542c0-13.118 6.040-25.13 16.568-32.954 10.526-7.826 23.774-10.142 36.33-6.364l56.978 17.152c4.084 1.234 7.166-0.418 8.64-1.512 1.47-1.094 3.938-3.566 3.938-7.836 0-9.618 7.796-17.416 17.416-17.416s17.416 7.798 17.416 17.416c0 14.248-6.558 27.294-17.992 35.792-11.436 8.498-25.818 11.016-39.458 6.91l-56.978-17.154c-2.614-0.788-4.572 0.27-5.51 0.966s-2.514 2.276-2.514 5.002v49.54c0 35.966-29.262 65.226-65.228 65.226h-221.89c-35.966 0-65.228-29.26-65.228-65.226v-49.542c0-2.726-1.576-4.306-2.514-5.002-0.936-0.696-2.896-1.754-5.51-0.966l-56.978 17.154c-13.65 4.106-28.022 1.586-39.458-6.91-11.434-8.498-17.992-21.544-17.992-35.792v-733.299c0-13.8 6.232-26.596 17.094-35.108 10.86-8.51 24.772-11.498 38.176-8.192l59.456 14.662c2.572 0.63 4.444-0.448 5.336-1.144 0.892-0.698 2.388-2.266 2.388-4.904v-44.502c0-35.966 29.262-65.226 65.228-65.226h221.888c35.966 0 65.228 29.26 65.228 65.226v44.502c0 2.64 1.498 4.206 2.388 4.904 0.892 0.696 2.76 1.778 5.334 1.144l59.46-14.662c13.4-3.302 27.316-0.318 38.174 8.192 10.864 8.51 17.094 21.308 17.094 35.108v644.487c0.002 9.618-7.792 17.416-17.412 17.416z" />
<glyph unicode="&#xe9b6;" d="M313.751 678.005c-9.62 0-17.416-7.798-17.416-17.416v-425.181c0-9.618 7.796-17.416 17.416-17.416s17.416 7.798 17.416 17.416v425.181c0 9.618-7.798 17.416-17.416 17.416z" />
<glyph unicode="&#xe9b7;" d="M691.207 660.589v-425.181c0-9.618 7.796-17.416 17.416-17.416s17.416 7.798 17.416 17.416v425.181c0 9.618-7.796 17.416-17.416 17.416s-17.416-7.798-17.416-17.416z" />
<glyph unicode="&#xe9b8;" d="M611.787 447.997c0 48.452-34.714 88.932-80.576 97.916l0.68 106.702h39.694c9.62 0 17.416 7.798 17.416 17.416s-7.796 17.416-17.416 17.416h-39.472l0.588 92.15h38.886c9.62 0 17.416 7.798 17.416 17.416s-7.796 17.416-17.416 17.416h-112.376c-9.62 0-17.416-7.798-17.416-17.416s7.796-17.416 17.416-17.416h38.66l-0.588-92.15h-38.072c-9.62 0-17.416-7.798-17.416-17.416s7.796-17.416 17.416-17.416h37.852l-0.676-106.058c-47.634-7.516-84.18-48.846-84.18-98.562 0-50.23 37.31-91.892 85.67-98.776l-0.614-96.4h-38.054c-9.62 0-17.416-7.798-17.416-17.416s7.796-17.416 17.416-17.416h37.83l-0.648-101.594h-37.184c-9.62 0-17.416-7.798-17.416-17.416s7.796-17.416 17.416-17.416h54.060c0.106-0.002 0.212-0.018 0.318-0.018 0.040 0 0.074 0 0.114 0 0.12 0 0.24 0.016 0.36 0.018h57.524c9.62 0 17.416 7.798 17.416 17.416s-7.796 17.416-17.416 17.416h-40.362l0.648 101.594h39.714c9.62 0 17.416 7.798 17.416 17.416s-7.796 17.416-17.416 17.416h-39.492l0.622 97.558c45.116 9.57 79.074 49.698 79.074 97.62zM447.035 447.997c0 35.82 29.142 64.962 64.962 64.962s64.962-29.142 64.962-64.962-29.142-64.962-64.962-64.962-64.962 29.142-64.962 64.962z" />
<glyph unicode="&#xe9b9;" d="M565.466 748.437v0 84.692c0 23.232-18.832 42.064-42.064 42.064h-60.224c-23.232 0-42.064-18.832-42.064-42.064v-84.696h-0.54c-31.048 0-56.22-25.17-56.22-56.22v-79.584h257.875v79.584c-0.002 31.052-25.714 56.224-56.762 56.224z" />
<glyph unicode="&#xe9ba;" d="M566.038 748.437h-0.54v84.692c0 23.232-18.832 42.064-42.064 42.064h-49.444c23.232 0 42.064-18.832 42.064-42.064v-84.696h0.54c31.048 0 56.22-25.17 56.22-56.22v-79.584h49.444v79.584c0 31.052-25.172 56.224-56.22 56.224z" />
<glyph unicode="&#xe9bb;" d="M608.94-45.506h-231.275c-36.938 0-66.884 29.946-66.884 66.884v533.412c0 36.938 29.946 66.884 66.884 66.884h231.277c36.938 0 66.884-29.946 66.884-66.884v-533.41c0-36.942-29.944-66.886-66.886-66.886z" />
<glyph unicode="&#xe9bc;" d="M608.94 621.675h-74.408c36.94 0 66.884-29.946 66.884-66.884v-533.41c0-36.938-29.946-66.884-66.884-66.884h74.408c36.94 0 66.884 29.946 66.884 66.884v533.41c0.002 36.94-29.942 66.884-66.884 66.884z" />
<glyph unicode="&#xe9bd;" d="M590.662 288.095c0-53.768-43.588-97.356-97.356-97.356s-97.356 43.588-97.356 97.356c0 53.768 43.588 97.356 97.356 97.356s97.356-43.588 97.356-97.356z" />
<glyph unicode="&#xe9be;" d="M640.757 634.003v58.212c0 35.010-24.208 64.458-56.76 72.52v68.394c0 33.394-27.172 60.562-60.566 60.562h-11.628v29.31h159.651l23.698-23.696c3.61-3.61 8.346-5.416 13.080-5.416s9.468 1.806 13.082 5.418c7.224 7.224 7.224 18.938-0.002 26.162l-29.116 29.114c-3.468 3.468-8.172 5.416-13.080 5.416h-241.721c-10.218 0-18.498-8.282-18.498-18.498s8.28-18.498 18.498-18.498h37.41v-29.308h-11.63c-33.394 0-60.566-27.168-60.566-60.562v-68.394c-32.55-8.064-56.76-37.514-56.76-72.52v-58.212c-31.364-12.644-53.57-43.374-53.57-79.212v-533.41c0-47.080 38.302-85.384 85.384-85.384h231.277c47.080 0 85.384 38.302 85.384 85.384v439.77c0 10.216-8.28 18.498-18.498 18.498s-18.498-8.282-18.498-18.498v-439.774c0-26.68-21.706-48.386-48.386-48.386h-231.277c-26.68 0-48.386 21.706-48.386 48.386v533.41c0 26.68 21.706 48.386 48.386 48.386h231.277c26.68 0 48.386-21.706 48.386-48.386 0-10.216 8.28-18.498 18.498-18.498s18.498 8.282 18.498 18.498c0.002 35.838-22.202 66.568-53.566 79.212zM382.849 640.173v52.040c0 20.8 16.92 37.72 37.72 37.72 0.092 0 0.18 0.012 0.268 0.012 0.092-0.002 0.18-0.012 0.268-0.012 10.218 0 18.498 8.282 18.498 18.498v84.698c0 12.994 10.572 23.566 23.568 23.566h60.256c12.996 0 23.568-10.572 23.568-23.566v-66.196h-38.076c-10.218 0-18.498-8.282-18.498-18.498s8.28-18.498 18.498-18.498h57.112c20.8 0 37.72-16.92 37.72-37.72v-52.040h-220.903z" />
<glyph unicode="&#xe9bf;" d="M731.719 847.174c0-10.216-8.282-18.498-18.498-18.498s-18.498 8.282-18.498 18.498c0 10.216 8.282 18.498 18.498 18.498s18.498-8.282 18.498-18.498z" />
<glyph unicode="&#xe9c0;" d="M493.304 403.94c-63.88 0-115.854-51.972-115.854-115.854s51.972-115.854 115.854-115.854 115.854 51.972 115.854 115.854-51.972 115.854-115.854 115.854zM493.304 209.227c-43.482 0-78.856 35.374-78.856 78.856s35.374 78.856 78.856 78.856 78.856-35.374 78.856-78.856c0-43.48-35.374-78.856-78.856-78.856z" />
<glyph unicode="&#xe9c1;" d="M781.498 544.492h-142.26c-23.528 0-42.602 19.074-42.602 42.602v271.844c0 46.106-37.374 83.482-83.48 83.482v0c-46.106 0-83.482-37.376-83.482-83.482v-271.844c0-23.528-19.074-42.602-42.602-42.602h-142.26c-87.916 0-159.186-71.27-159.186-159.186v-87.552h855.062v87.552c-0.004 87.914-71.274 159.186-159.19 159.186z" />
<glyph unicode="&#xe9c2;" d="M781.498 544.492h-142.26c-23.528 0-42.602 19.074-42.602 42.602v270.242c0 46.278-37.858 85.436-84.134 85.082-35.95-0.276-66.48-23.278-77.958-55.348 5.91 1.328 12.048 2.050 18.358 2.050 46.106 0 83.48-37.376 83.48-83.482v-223.82c0-50.050 40.574-90.628 90.628-90.628h138.614c63.408 0 114.808-51.402 114.808-114.808v-78.632h60.252v87.552c0 87.918-71.27 159.19-159.186 159.19z" />
<glyph unicode="&#xe9c3;" d="M956.906 427.142c0 9.598-7.78 17.38-17.38 17.38s-17.38-7.782-17.38-17.38v-109.88h-820.3v68.242c0 78.192 63.614 141.806 141.806 141.806h142.26c33.074 0 59.982 26.906 59.982 59.982v271.848c0 36.45 29.656 66.1 66.102 66.1s66.1-29.652 66.1-66.1v-271.844c0-33.074 26.906-59.982 59.982-59.982h142.262c31.43 0 61.196-10.066 86.088-29.112 7.624-5.832 18.534-4.38 24.364 3.242 5.836 7.624 4.384 18.532-3.24 24.364-31.008 23.726-68.082 36.266-107.212 36.266h-142.26c-13.906 0-25.222 11.314-25.222 25.222v271.844c0 55.616-45.246 100.86-100.86 100.86-55.616 0-100.862-45.246-100.862-100.86v-271.844c0-13.906-11.316-25.222-25.222-25.222h-142.26c-97.36 0-176.566-79.208-176.566-176.566l0.818-432.126c0-9.598 7.78-17.38 17.38-17.38s17.38 7.782 17.38 17.38v329.12h42.898v-329.122c0-9.598 7.78-17.38 17.38-17.38s17.38 7.782 17.38 17.38v329.122h42.898v-328.92c0-9.598 7.78-17.38 17.38-17.38s17.38 7.782 17.38 17.38v328.92h42.898v-328.92c0-9.598 7.78-17.38 17.38-17.38s17.38 7.782 17.38 17.38v328.92h42.898v-328.92c0-9.598 7.78-17.38 17.38-17.38s17.38 7.782 17.38 17.38v328.92h42.902v-328.92c0-9.598 7.78-17.38 17.38-17.38s17.38 7.782 17.38 17.38v328.92h42.898v-329.122c0-9.598 7.78-17.38 17.38-17.38s17.38 7.782 17.38 17.38v329.122h42.898v-329.122c0-9.598 7.78-17.38 17.38-17.38s17.38 7.782 17.38 17.38v329.122h42.898v-328.92c0-9.598 7.78-17.38 17.38-17.38s17.38 7.782 17.38 17.38v328.92h42.898v-328.92c0-9.598 7.78-17.38 17.38-17.38s17.38 7.782 17.38 17.38v328.92h42.898v-328.92c0-9.598 7.78-17.38 17.38-17.38s17.38 7.782 17.38 17.38v328.92h42.898v-328.92c0-9.598 7.78-17.38 17.38-17.38s17.38 7.782 17.38 17.38v473.56h-0.002z" />
<glyph unicode="&#xe9c4;" d="M144.714 378.416c0-9.598 7.78-17.38 17.38-17.38h670.488c9.6 0 17.38 7.782 17.38 17.38s-7.78 17.38-17.38 17.38h-670.488c-9.6 0-17.38-7.782-17.38-17.38z" />
<glyph unicode="&#xe9c5;" d="M529.372 868.544c0-9.599-7.781-17.38-17.38-17.38s-17.38 7.781-17.38 17.38c0 9.599 7.781 17.38 17.38 17.38s17.38-7.781 17.38-17.38z" />
<glyph unicode="&#xe9c6;" d="M228.76 274.144l605.742 591.796c16.626 16.244 42.276-5.888 28.642-24.714l-348.372-481.042-54.472 32.9-182.322-175.534-49.218 56.594z" />
<glyph unicode="&#xe9c7;" d="M277.976 217.55l23.286 22.42c-12.582 22.060-29.976 41.006-50.784 55.396l-21.718-21.218 49.216-56.598z" />
<glyph unicode="&#xe9c8;" d="M154.654 296.088c-75.138 0-136.046-60.912-136.046-136.046 0-33.89 12.39-64.884 32.89-88.702 24.95-28.99 61.912-47.344 103.156-47.344 75.138 0 136.046 60.912 136.046 136.046s-60.908 136.046-136.046 136.046zM154.654 99.252c-33.572 0-60.788 27.216-60.788 60.788s27.216 60.788 60.788 60.788 60.788-27.216 60.788-60.788c0-33.572-27.216-60.788-60.788-60.788z" />
<glyph unicode="&#xe9c9;" d="M689.736 274.144l-605.744 591.796c-16.626 16.244-42.276-5.888-28.642-24.714l357.266-494.048 48.33 43.258 179.572-172.886 49.218 56.594z" />
<glyph unicode="&#xe9ca;" d="M640.52 217.55l49.216 56.596-21.718 21.218c-20.806-14.39-38.202-33.334-50.784-55.396l23.286-22.418z" />
<glyph unicode="&#xe9cb;" d="M878.49 86.362l-0.188 0.154c13.648 21.204 21.586 46.434 21.586 73.526 0 7.078-0.556 14.026-1.598 20.812-0.018 0.116-0.020 0.236-0.038 0.352-10.166 65.086-66.474 114.882-134.412 114.882-67.962 0-124.286-49.836-134.422-114.958-0.014-0.102-0.020-0.206-0.032-0.31-1.040-6.776-1.592-13.714-1.592-20.782 0-75.138 60.912-136.046 136.046-136.046 34.626 0 66.2 12.972 90.216 34.274-0.002 0.002 13.054 8.98 24.434 28.096zM763.838 220.828c33.572 0 60.788-27.216 60.788-60.788s-27.216-60.788-60.788-60.788-60.788 27.216-60.788 60.788 27.216 60.788 60.788 60.788z" />
<glyph unicode="&#xe9cc;" d="M154.654 66.172c-41.248 0-78.206 18.356-103.156 47.344-16.172 18.792-27.268 42.062-31.242 67.684-1.076-6.898-1.648-13.962-1.648-21.162 0-33.89 12.39-64.884 32.89-88.702 24.95-28.99 61.912-47.344 103.156-47.344 75.138 0 136.046 60.912 136.046 136.046 0 7.172-0.564 14.214-1.632 21.090-10.134-65.118-66.448-114.956-134.414-114.956z" />
<glyph unicode="&#xe9cd;" d="M878.49 86.362l-0.188 0.154c13.648 21.204 21.586 46.434 21.586 73.526 0 7.2-0.568 14.264-1.648 21.162-3.974-25.624-15.070-48.892-31.242-67.684-24.95-28.99-61.912-47.344-103.156-47.344-67.962 0-124.278 49.838-134.414 114.958-1.070-6.876-1.632-13.916-1.632-21.090 0-75.138 60.912-136.046 136.046-136.046 34.626 0 66.2 12.972 90.216 34.274-0.004-0.004 9.64 6.494 24.432 28.090z" />
<glyph unicode="&#xe9ce;" d="M452.454 438.348c0-10.277-8.331-18.608-18.608-18.608s-18.608 8.331-18.608 18.608c0 10.277 8.331 18.608 18.608 18.608s18.608-8.331 18.608-18.608z" />
<glyph unicode="&#xe9cf;" d="M154.654 239.646c-43.78 0-79.396-35.616-79.396-79.396s35.616-79.396 79.396-79.396 79.396 35.616 79.396 79.396-35.614 79.396-79.396 79.396zM154.654 118.072c-23.258 0-42.178 18.92-42.178 42.178s18.92 42.178 42.178 42.178 42.178-18.92 42.178-42.178-18.916-42.178-42.178-42.178z" />
<glyph unicode="&#xe9d0;" d="M763.838 239.646c-43.78 0-79.396-35.616-79.396-79.396s35.616-79.396 79.396-79.396 79.396 35.616 79.396 79.396-35.616 79.396-79.396 79.396zM763.838 118.072c-23.258 0-42.178 18.92-42.178 42.178s18.92 42.178 42.178 42.178 42.178-18.92 42.178-42.178-18.92-42.178-42.178-42.178z" />
<glyph unicode="&#xe9d1;" d="M1017.542 113.558c-7.784 6.706-19.534 5.836-26.246-1.948l-1.464-1.7c-23.63-27.404-59.912-38.256-93.684-29.698 14.514 23.998 22.348 51.656 22.348 80.036 0 85.278-69.38 154.654-154.654 154.654-52.872 0-99.614-26.684-127.516-67.276l-162.47 156.422c-7.020 6.758-18.060 6.958-25.318 0.462l-32.942-29.486-345.174 477.326c-0.072 0.102-0.132 0.192-0.178 0.266 0.138 0.162 0.33 0.326 0.508 0.44 0.066-0.058 0.148-0.13 0.238-0.218l541.854-529.82c7.352-7.182 19.132-7.044 26.314 0.308s7.044 19.132-0.308 26.314l-63.584 62.564 302.946 418.316c11.734 16.202 9.258 37.442-5.888 50.51-15.144 13.070-36.522 12.406-50.828-1.574l-362.248-353.906-362.252 353.91c-14.308 13.982-35.684 14.642-50.828 1.574s-17.62-34.312-5.896-50.5l302.698-418.586-117.15-114.454c-21.318 11.1-45.508 17.412-71.16 17.412-85.28 0-154.66-69.378-154.66-154.656 0-37.010 13.282-72.826 37.396-100.842 29.434-34.2 72.172-53.816 117.262-53.816 85.278 0 154.654 69.38 154.654 154.654 0 18.564-3.292 36.37-9.316 52.878l72.464 69.764c7.404 7.128 7.626 18.908 0.498 26.31-7.128 7.404-18.908 7.626-26.31 0.498l-64.474-62.072c-7.188 10.456-15.63 19.978-25.102 28.366l107.946 105.46 32.522-44.972c3.088-4.272 7.846-7.032 13.086-7.598 5.232-0.564 10.476 1.122 14.402 4.638l35.458 31.738 158.014-152.132c-6.024-16.504-9.316-34.314-9.316-52.878 0-85.278 69.38-154.654 154.654-154.654 40.36 0 78.808 15.756 107.544 43.58 15.51-6.086 31.674-9.094 47.71-9.094 37.024 0 73.3 15.81 98.93 45.53l1.466 1.702c6.708 7.79 5.836 19.54-1.946 26.248zM847.506 852.84c0.090 0.086 0.168 0.158 0.238 0.216 0.178-0.112 0.37-0.278 0.508-0.436-0.048-0.076-0.104-0.166-0.178-0.268l-299.718-413.86-62.48 61.042 361.63 353.306zM154.654 42.812c-34.236 0-66.698 14.9-89.054 40.876-18.304 21.266-28.384 48.456-28.384 76.562 0 64.756 52.684 117.438 117.438 117.438s117.438-52.682 117.438-117.438-52.68-117.438-117.438-117.438zM646.4 160.25c0 64.756 52.684 117.438 117.438 117.438s117.438-52.682 117.438-117.438c0-28.104-10.080-55.296-28.386-76.562-22.358-25.978-54.816-40.876-89.054-40.876-64.752 0-117.436 52.682-117.436 117.438z" />
<glyph unicode="&#xe9d2;" d="M452.454 438.546c0-10.277-8.331-18.608-18.608-18.608s-18.608 8.331-18.608 18.608c0 10.277 8.331 18.608 18.608 18.608s18.608-8.331 18.608-18.608z" />
<glyph unicode="&#xe9d3;" d="M400.867 486.097l429.471 121.364v234.368l-429.471 98.114z" />
<glyph unicode="&#xe9d4;" d="M830.338 665.541l-104.98-21.034c-42.454-8.458-81.56 24.306-81.42 67.594 0 0.304 0.002 0.612 0.002 0.916 0 72.564-27.794 138.628-73.304 188.156l-169.766 38.768v-453.849l429.469 121.364v58.082z" />
<glyph unicode="&#xe9d5;" d="M365.755 74.272v0c-57.12 0-103.422 46.302-103.422 103.422v363.043h206.842v-363.043c0.002-57.12-46.302-103.422-103.42-103.422z" />
<glyph unicode="&#xe9d6;" d="M382.937 169.222c0-9.494-7.696-17.19-17.19-17.19s-17.19 7.696-17.19 17.19c0 9.494 7.696 17.19 17.19 17.19s17.19-7.696 17.19-17.19z" />
<glyph unicode="&#xe9d7;" d="M400.867 540.735h-138.532v-86.020c31.972-12.812 66.87-19.874 103.422-19.874 0.12 0 0.238 0 0.358 0 19.136 0.026 34.756-15.25 34.756-34.386v-222.76c0-45.146-28.938-83.51-69.268-97.62 10.694-3.742 22.182-5.802 34.154-5.802v0c57.116 0 103.422 46.302 103.422 103.422v363.039l-68.312 0.002z" />
<glyph unicode="&#xe9d8;" d="M382.937 410.651c0-9.494-7.696-17.19-17.19-17.19s-17.19 7.696-17.19 17.19c0 9.494 7.696 17.19 17.19 17.19s17.19-7.696 17.19-17.19z" />
<glyph unicode="&#xe9d9;" d="M223.636 763.636c0-9.494-7.696-17.19-17.19-17.19s-17.19 7.696-17.19 17.19c0 9.494 7.696 17.19 17.19 17.19s17.19-7.696 17.19-17.19z" />
<glyph unicode="&#xe9da;" d="M918.302 568.631l-89.040 38.498v234.988l89.040 38.498c8.564 3.702 18.116-2.576 18.116-11.906v-288.175c0-9.33-9.554-15.608-18.116-11.904z" />
<glyph unicode="&#xe9db;" d="M918.302 626.697l-89.040 38.498v-58.066l89.040-38.498c8.564-3.702 18.116 2.576 18.116 11.906v58.066c0-9.33-9.554-15.608-18.116-11.906z" />
<glyph unicode="&#xe9dc;" d="M595.347 713.026c0-126.805-102.796-229.6-229.6-229.6s-229.6 102.796-229.6 229.6c0 126.805 102.796 229.6 229.6 229.6s229.6-102.796 229.6-229.6z" />
<glyph unicode="&#xe9dd;" d="M569.673 713.026c0-112.625-91.301-203.926-203.926-203.926s-203.926 91.301-203.926 203.926c0 112.625 91.301 203.926 203.926 203.926s203.926-91.301 203.926-203.926z" />
<glyph unicode="&#xe9de;" d="M453.007 713.026c0-48.192-39.068-87.26-87.26-87.26s-87.26 39.068-87.26 87.26c0 48.192 39.068 87.26 87.26 87.26s87.26-39.068 87.26-87.26z" />
<glyph unicode="&#xe9df;" d="M410.371 713.026c0-24.645-19.979-44.624-44.624-44.624s-44.624 19.979-44.624 44.624c0 24.645 19.979 44.624 44.624 44.624s44.624-19.979 44.624-44.624z" />
<glyph unicode="&#xe9e0;" d="M223.636 763.636c0-9.494-7.696-17.19-17.19-17.19s-17.19 7.696-17.19 17.19c0 9.494 7.696 17.19 17.19 17.19s17.19-7.696 17.19-17.19z" />
<glyph unicode="&#xe9e1;" d="M213.32 700.029c0-9.494-7.696-17.19-17.19-17.19s-17.19 7.696-17.19 17.19c0 9.494 7.696 17.19 17.19 17.19s17.19-7.696 17.19-17.19z" />
<glyph unicode="&#xe9e2;" d="M233.88 642.955c0-9.494-7.696-17.19-17.19-17.19s-17.19 7.696-17.19 17.19c0 9.494 7.696 17.19 17.19 17.19s17.19-7.696 17.19-17.19z" />
<glyph unicode="&#xe9e3;" d="M383.143 169.406c0-9.494-7.696-17.19-17.19-17.19s-17.19 7.696-17.19 17.19c0 9.494 7.696 17.19 17.19 17.19s17.19-7.696 17.19-17.19z" />
<glyph unicode="&#xe9e4;" d="M383.143 410.833c0-9.494-7.696-17.19-17.19-17.19s-17.19 7.696-17.19 17.19c0 9.494 7.696 17.19 17.19 17.19s17.19-7.696 17.19-17.19z" />
<glyph unicode="&#xe9e5;" d="M940.202 894.114c-8.516 5.592-19.182 6.522-28.532 2.478l-83.878-36.266-390.929 89.272c-10.87 3.266-22.046 5.82-33.484 7.566-0.114 0.016-0.232 0.034-0.346 0.048-12.1 1.832-24.484 2.788-37.086 2.788-136.078 0-246.784-110.706-246.784-246.784s110.706-246.784 246.784-246.784c30.32 0 59.374 5.508 86.232 15.556v-304.101c0-47.548-38.682-86.232-86.232-86.232s-86.232 38.682-86.232 86.232v250.152c0 9.494-7.696 17.19-17.19 17.19s-17.19-7.696-17.19-17.19v-250.146c0-60.668 45.032-110.996 103.422-119.366v-57.2c0-17.062-13.88-30.944-30.944-30.944h-86.024c-17.062 0-30.944 13.88-30.944 30.944v237.232c0 36.020-29.304 65.324-65.324 65.324s-65.326-29.304-65.326-65.324v-124.92c0-9.494 7.696-17.19 17.19-17.19s17.19 7.696 17.19 17.19v124.92c0 17.062 13.88 30.944 30.944 30.944s30.944-13.88 30.944-30.944v-237.232c0-36.020 29.304-65.324 65.324-65.324h86.024c36.020 0 65.324 29.304 65.324 65.324v57.2c58.39 8.37 103.422 58.698 103.422 119.366v320.093c75.232 42.326 126.172 122.934 126.172 215.23 0 70.088-29.37 133.444-76.448 178.41l275.985-63.022v-208.272l-217.466-61.44c-9.136-2.58-14.452-12.082-11.868-21.216 2.14-7.576 9.034-12.522 16.532-12.522 1.548 0 3.12 0.21 4.682 0.654l224.1 63.312 83.428-36.070c3.854-1.666 7.926-2.486 11.986-2.486 5.79 0 11.54 1.676 16.55 4.968 8.512 5.596 13.596 15.018 13.596 25.206v288.171c-0.006 10.188-5.088 19.61-13.604 25.206zM578.347 713.216c0-117.12-95.282-212.402-212.402-212.402s-212.402 95.282-212.402 212.402 95.284 212.402 212.404 212.402c10.908 0 21.626-0.83 32.096-2.422l30.076-6.868c86.878-26.648 150.228-107.616 150.228-203.112zM919.418 587.157l-72.774 31.464v212.396l72.774 31.466v-275.327z" />
<glyph unicode="&#xe9e6;" d="M365.947 817.664c-57.594 0-104.448-46.856-104.448-104.448s46.856-104.448 104.448-104.448 104.448 46.856 104.448 104.448-46.854 104.448-104.448 104.448zM365.947 643.149c-38.636 0-70.068 31.432-70.068 70.068s31.432 70.068 70.068 70.068 70.068-31.432 70.068-70.068-31.432-70.068-70.068-70.068z" />
<glyph unicode="&#xe9e7;" d="M223.842 763.842c0-9.494-7.696-17.19-17.19-17.19s-17.19 7.696-17.19 17.19c0 9.494 7.696 17.19 17.19 17.19s17.19-7.696 17.19-17.19z" />
<glyph unicode="&#xe9e8;" d="M213.528 700.235c0-9.494-7.696-17.19-17.19-17.19s-17.19 7.696-17.19 17.19c0 9.494 7.696 17.19 17.19 17.19s17.19-7.696 17.19-17.19z" />
<glyph unicode="&#xe9e9;" d="M234.064 643.139c0-9.494-7.696-17.19-17.19-17.19s-17.19 7.696-17.19 17.19c0 9.494 7.696 17.19 17.19 17.19s17.19-7.696 17.19-17.19z" />
<glyph unicode="&#xe9ea;" d="M307.641 205.371l304.541 724.557c8.36 19.888 38.274 10.212 33.404-10.802l-74.26-380.815c-6.090-31.224-38.368-49.86-68.452-39.524v0l-132.735-324.061-62.498 30.646z" />
<glyph unicode="&#xe9eb;" d="M718.891 205.371l-304.543 724.557c-8.36 19.888-38.274 10.212-33.404-10.802l74.26-380.815c6.090-31.224 38.368-49.86 68.452-39.524v0l132.735-324.061 62.5 30.646z" />
<glyph unicode="&#xe9ec;" d="M656.391 174.725l62.5 30.646-16.27 38.71c-22.626-5.228-44.058-14.962-62.888-28.684l16.658-40.672z" />
<glyph unicode="&#xe9ed;" d="M370.139 174.725l16.764 40.93c-10.43 7.56-21.842 14.1-34.22 19.32-9.45 3.986-19.062 7.010-28.728 9.22l-16.316-38.82 62.5-30.65z" />
<glyph unicode="&#xe9ee;" d="M534.19 564.424c0-10.484-8.499-18.982-18.982-18.982s-18.982 8.499-18.982 18.982c0 10.484 8.499 18.982 18.982 18.982s18.982-8.499 18.982-18.982z" />
<glyph unicode="&#xe9ef;" d="M790.177 197.407c-64.254 27.1-138.311-3.016-165.413-67.268-27.1-64.254 3.016-138.311 67.27-165.411 35.272-14.876 73.498-12.512 105.292 3.28 26.122 12.974 47.896 35.010 60.12 63.99 27.1 64.248-3.018 138.307-67.27 165.409zM793.087 59.138c-12.108-28.708-45.198-42.164-73.906-30.056-28.71 12.11-42.166 45.198-30.056 73.906s45.198 42.164 73.906 30.056c28.71-12.106 42.166-45.196 30.056-73.906z" />
<glyph unicode="&#xe9f0;" d="M401.768 130.139c-27.1 64.254-101.158 94.372-165.413 67.268-64.254-27.1-94.372-101.158-67.268-165.413 12.224-28.98 34-51.018 60.12-63.99 31.792-15.79 70.020-18.156 105.292-3.28 64.25 27.102 94.368 101.16 67.268 165.415zM307.353 29.082c-28.708-12.11-61.798 1.346-73.906 30.056-12.11 28.71 1.346 61.798 30.056 73.906 28.708 12.108 61.798-1.346 73.906-30.056s-1.348-61.796-30.056-73.906z" />
<glyph unicode="&#xe9f1;" d="M857.447 73.755c-12.224-28.98-34-51.018-60.12-63.99-31.792-15.79-70.018-18.156-105.292-3.28-41.334 17.432-68.506 54.308-75.442 95.492-9.524-56.424 20.43-114.048 75.442-137.253 35.272-14.876 73.5-12.512 105.292 3.28 26.122 12.974 47.896 35.010 60.12 63.99 9.668 22.92 12.020 47.080 8.172 69.918-1.6-9.474-4.278-18.92-8.172-28.158z" />
<glyph unicode="&#xe9f2;" d="M334.497 6.484c-35.272-14.876-73.498-12.512-105.292 3.28-26.122 12.974-47.896 35.010-60.12 63.99-3.898 9.24-6.572 18.682-8.172 28.158-3.846-22.838-1.496-46.998 8.172-69.918 12.224-28.98 34-51.018 60.12-63.99 31.792-15.79 70.020-18.156 105.292-3.28 55.014 23.204 84.966 80.828 75.442 137.253-6.938-41.184-34.108-78.056-75.442-95.492z" />
<glyph unicode="&#xe9f3;" d="M769.143 150.725c-38.304 16.154-82.616-1.862-98.774-40.17s1.862-82.618 40.17-98.772c9.538-4.022 19.444-5.928 29.202-5.928 29.422 0 57.438 17.328 69.574 46.098 16.152 38.304-1.866 82.614-40.172 98.772zM774.333 66.705c-8.022-19.020-30.024-27.962-49.040-19.944-9.212 3.884-16.36 11.126-20.128 20.388s-3.702 19.438 0.182 28.65c6.026 14.284 19.934 22.886 34.544 22.886 4.844 0 9.764-0.946 14.5-2.944 19.016-8.016 27.962-30.018 19.942-49.036z" />
<glyph unicode="&#xe9f4;" d="M874.385 135.969c-14.616 35.938-42.352 64.036-78.1 79.112-44.954 18.958-94.178 13.452-132.841-10.404l-123.488 301.489c-3.814 9.308-14.226 14.024-23.732 10.756-9.146-3.146-19.194-2.172-27.566 2.666-8.374 4.834-14.236 13.052-16.088 22.542l-2.416 12.394c-0.006 0.030-0.012 0.060-0.018 0.094l-69.404 355.899 93.688-222.905c0.002-0.010 0.008-0.018 0.012-0.028l60.548-144.059c0.010-0.026 0.020-0.050 0.030-0.076l107.61-258.253c4.062-9.662 15.186-14.206 24.854-10.144 9.662 4.062 14.206 15.188 10.144 24.854l-105.406 253.015 70.688 362.485c4.174 18.834-6.072 36.754-24.478 42.706-18.534 5.996-37.456-2.688-45.004-20.642l-81.418-193.709-81.418 193.709c-7.544 17.952-26.47 26.642-45.002 20.642-18.41-5.952-28.654-23.876-24.478-42.71l70.684-362.479-137.339-326.753c-22.542 1.624-45.308-2.044-66.734-11.082-35.748-15.078-63.482-43.174-78.098-79.112s-14.36-75.418 0.716-111.164c13.508-32.028 38.072-58.17 69.166-73.612 20.358-10.114 42.498-15.196 64.672-15.192 19.162 0 38.356 3.796 56.44 11.424 35.746 15.078 63.482 43.176 78.098 79.114s14.36 75.418-0.716 111.164c-6.578 15.592-15.634 29.656-26.734 41.778l98.768 241.135c3.974 9.7-0.67 20.786-10.372 24.76-9.704 3.974-20.786-0.674-24.76-10.372l-94.306-230.245c-6.862 4.226-14.096 7.944-21.71 11.040-2.174 0.884-4.364 1.708-6.562 2.486l119.148 283.477c5.14-5.924 11.264-11.038 18.212-15.046 12.56-7.254 26.882-10.442 41.064-9.364l122.042-297.957c-10.968-11.944-20.116-25.914-26.772-41.688-31.124-73.792 3.588-159.153 77.384-190.279 18.088-7.628 37.278-11.426 56.44-11.426 22.172 0 44.314 5.084 64.672 15.196 31.094 15.446 55.656 41.588 69.166 73.612v0c15.076 35.732 15.328 75.212 0.712 111.15zM623.254 910.452l-57.464-294.671-33.202 78.994 90.666 215.677zM355.459 161.481c0.322-0.322 0.666-0.622 1.012-0.924 11.336-10.324 20.404-23.062 26.538-37.612 11.138-26.404 11.326-55.566 0.528-82.11-10.794-26.546-31.282-47.296-57.684-58.436-28.82-12.158-61.426-11.14-89.474 2.792-22.958 11.402-41.094 30.71-51.072 54.366v0c-11.138 26.404-11.326 55.566-0.528 82.11 10.794 26.544 31.282 47.296 57.684 58.432 13.422 5.662 27.546 8.492 41.686 8.492 13.68 0 27.372-2.652 40.426-7.962 11.486-4.666 21.88-11.156 30.884-19.148zM838.691 39.558v0c-9.976-23.656-28.116-42.964-51.072-54.366-28.044-13.93-60.654-14.944-89.472-2.792-54.504 22.99-80.146 86.040-57.154 140.545 17.266 40.936 57.126 65.59 98.994 65.59 13.88 0 27.982-2.71 41.55-8.436 26.404-11.136 46.89-31.888 57.686-58.432 10.794-26.544 10.606-55.704-0.532-82.108z" />
<glyph unicode="&#xe9f5;" d="M254.859 150.725c-18.558-7.828-32.954-22.41-40.542-41.068-7.588-18.656-7.454-39.15 0.372-57.706v0c7.828-18.558 22.41-32.954 41.068-40.542 9.174-3.734 18.794-5.596 28.408-5.596 9.936 0 19.868 1.992 29.294 5.968 18.556 7.828 32.954 22.41 40.542 41.068s7.454 39.15-0.372 57.706c-16.154 38.306-60.464 56.324-98.77 40.17zM318.653 95.801c3.884-9.212 3.95-19.386 0.184-28.65s-10.916-16.504-20.13-20.392c-9.212-3.884-19.386-3.954-28.65-0.184-9.262 3.766-16.504 10.916-20.388 20.128v0c-3.884 9.212-3.95 19.386-0.184 28.65s10.916 16.504 20.13 20.392c4.736 1.996 9.652 2.944 14.496 2.944 14.606 0 28.516-8.606 34.542-22.888z" />
<glyph unicode="&#xe9f6;" d="M532.926 564.626c0-10.484-8.499-18.982-18.982-18.982s-18.982 8.499-18.982 18.982c0 10.484 8.499 18.982 18.982 18.982s18.982-8.499 18.982-18.982z" />
<glyph unicode="&#xe9f7;" d="M692.516 713.536h-361.036v180.91c0 26.386 21.39 47.778 47.778 47.778h265.482c26.386 0 47.778-21.39 47.778-47.778v-180.91z" />
<glyph unicode="&#xe9f8;" d="M642.552 942.222h-109.968c27.596 0 49.966-22.372 49.966-49.966v-178.722h109.968v178.724c-0.002 27.592-22.372 49.964-49.966 49.964z" />
<glyph unicode="&#xe9f9;" d="M748.69-46.222h-473.382c-21.136 0-38.274 17.136-38.274 38.274v635.048c0 50.648 41.058 91.704 91.704 91.704h366.52c50.648 0 91.704-41.058 91.704-91.704v-635.050c0.002-21.136-17.134-38.272-38.272-38.272z" />
<glyph unicode="&#xe9fa;" d="M691.056 718.806h-100.81c52.968 0 95.908-42.94 95.908-95.908v-629.094c0-22.106-17.92-40.028-40.026-40.028h100.81c22.106 0 40.026 17.92 40.026 40.028v629.094c0 52.968-42.94 95.908-95.908 95.908z" />
<glyph unicode="&#xe9fb;" d="M639.728 186.058h-255.46c-25.64 0-46.426 20.786-46.426 46.426v207.62c0 25.64 20.786 46.426 46.426 46.426h255.46c25.64 0 46.426-20.786 46.426-46.426v-207.62c-0.002-25.644-20.786-46.426-46.426-46.426z" />
<glyph unicode="&#xe9fc;" d="M637.6 486.528h-86.766c26.816 0 48.552-21.738 48.552-48.552v-203.366c0-26.816-21.738-48.552-48.552-48.552h86.766c26.816 0 48.552 21.738 48.552 48.552v203.364c0.002 26.816-21.736 48.554-48.552 48.554z" />
<glyph unicode="&#xe9fd;" d="M786.964 530.36c9.818 0 17.778 7.96 17.778 17.778v74.762c0 56.126-40.896 102.852-94.448 112.024v159.522c0 36.148-29.406 65.554-65.554 65.554h-265.482c-36.148 0-65.554-29.406-65.554-65.554v-159.524c-53.552-9.17-94.448-55.896-94.448-112.024v-629.094c0-31.874 25.932-57.804 57.806-57.804h469.876c31.874 0 57.806 25.93 57.806 57.804v455.976c0 9.818-7.96 17.778-17.778 17.778s-17.778-7.96-17.778-17.778v-455.976c0-12.27-9.982-22.248-22.25-22.248h-469.876c-12.27 0-22.25 9.98-22.25 22.248v629.096c0 43.080 35.048 78.128 78.13 78.128h358.116c43.082 0 78.13-35.048 78.13-78.128v-74.762c-0.002-9.818 7.958-17.778 17.776-17.778zM618.92 736.584v111.81c0 9.818-7.96 17.778-17.778 17.778s-17.778-7.96-17.778-17.778v-111.81h-53.586v111.81c0 9.818-7.96 17.778-17.778 17.778s-17.778-7.96-17.778-17.778v-111.81h-53.586v111.81c0 9.818-7.96 17.778-17.778 17.778s-17.778-7.96-17.778-17.778v-111.81h-55.82v157.862c0 16.542 13.456 30 30 30h265.48c16.542 0 30-13.456 30-30v-157.862h-55.82z" />
<glyph unicode="&#xe9fe;" d="M639.728 504.304h-255.46c-35.402 0-64.204-28.8-64.204-64.202v-207.62c0-35.402 28.802-64.202 64.204-64.202h255.458c35.402 0 64.204 28.8 64.204 64.202v207.62c0.002 35.402-28.8 64.202-64.202 64.202zM668.376 232.482c0-15.796-12.852-28.646-28.648-28.646h-255.46c-15.796 0-28.648 12.85-28.648 28.646v207.62c0 15.796 12.852 28.646 28.648 28.646h255.458c15.796 0 28.648-12.85 28.648-28.646v-207.62h0.002z" />
<glyph unicode="&#xe9ff;" d="M686.466 223.506v165.57c0 59.916 1.976 83.22-40.636 125.83-46.75 46.75-29.694 113.166-29.694 113.166h-202.252c0 0 16.358-66.414-30.394-113.166-45.284-45.284-43.718-65.914-43.718-125.83v-386.972c0-27.306 22.136-49.444 49.444-49.444h247.818c27.31 0 49.446 22.138 49.444 49.446l-0.012 221.4z" />
<glyph unicode="&#xea00;" d="M686.466 389.076c0 59.916 1.976 83.22-40.636 125.83-46.75 46.752-29.694 113.166-29.694 113.166h-53.176c0 0-5.492-57.188 29.694-113.166 21.99-34.986 14.424-65.914 14.424-125.83v-165.57l0.012-221.402c0.002-27.306-22.136-49.446-49.444-49.446h79.39c27.31 0 49.446 22.138 49.444 49.446l-0.012 221.402v165.57h-0.002z" />
<glyph unicode="&#xea01;" d="M618.186 626.924h-209.126c-16.978 0-30.414 14.362-29.284 31.302l3.76 56.328c0 13.468 13.598 24.388 30.372 24.388h198.972c16.774 0 30.372-10.918 30.372-24.388l4.202-56.090c1.272-17.022-12.196-31.54-29.268-31.54z" />
<glyph unicode="&#xea02;" d="M583.030 738.484h-138.562l3.16 13.784c4.87 21.254 7.328 42.988 7.328 64.792v-0.084c0 31.644 25.654 125.976 57.296 125.976v0c31.644 0 57.296-88.606 57.296-120.252v0c0-25.504 3.66-50.878 10.866-75.342l2.616-8.874z" />
<glyph unicode="&#xea03;" d="M647.452 658.466l-4.202 56.090c0 13.47-13.598 24.388-30.372 24.388h-29.984l-3.338 11.334c-6.94 23.564-9.938 48.032-10.008 72.596-0.090 31.79-25.708 120.082-57.296 120.082v0c17.004-54.074 18.502-95.528 18.502-120.252 0-25.504 3.658-50.874 10.866-75.342l2.48-8.42h-130.192c-15.95 0-29.004-9.88-30.248-22.432 5.61 6.73 15.364 11.196 26.484 11.196h85.816c39.366 0 72.252-30.022 75.846-69.224 0.002-0.014 0.002-0.020 0.002-0.020 1.276-17.024-12.194-31.54-29.266-31.54h75.648c17.068 0.002 30.538 14.52 29.262 31.544z" />
<glyph unicode="&#xea04;" d="M582.59 223.044c0-36.694-29.748-66.442-66.442-66.442s-66.442 29.748-66.442 66.442c0 28.822 40.988 79.708 58.578 100.216 4.136 4.824 11.59 4.824 15.726 0 17.592-20.512 58.58-71.396 58.58-100.216z" />
<glyph unicode="&#xea05;" d="M502.606 343.78c-11.834-12.906-70.872-79.378-70.872-120.544 0-45.928 37.366-83.294 83.294-83.294s83.294 37.364 83.294 83.294c0 41.166-59.038 107.636-70.872 120.544-3.192 3.48-7.7 5.462-12.422 5.462s-9.232-1.982-12.422-5.462zM564.616 223.236c0-27.342-22.244-49.59-49.59-49.59s-49.59 22.244-49.59 49.59c0 17.562 25.99 55.314 49.59 83.54 23.6-28.224 49.59-65.978 49.59-83.54z" />
<glyph unicode="&#xea06;" d="M702.204 396.862c0.084 56.228 0.126 84.45-45.576 130.156-6.582 6.582-17.252 6.584-23.83 0-6.584-6.582-6.584-17.252-0.002-23.83 35.812-35.812 35.786-53.566 35.708-106.274l-0.006-7.64 0.012-386.97c0-8.706-3.39-16.892-9.544-23.046s-14.34-9.548-23.046-9.548h-247.82c-17.97 0-32.592 14.62-32.592 32.592v386.966l-0.004 5.826c-0.048 54.574-0.058 69.24 38.788 108.086 36.096 36.096 39.346 81.126 37.512 107.084h159.53v-28.524c0-9.334 7.568-16.902 16.902-16.902 9.336 0 16.902 7.568 16.902 16.902v29.294c9.816 1.754 18.938 6.614 25.796 14.008 8.714 9.39 13.16 22.1 12.208 34.876l-4.164 55.558c-0.448 22.406-21.456 40.512-47.216 40.512h-17.308c-6.060 21.792-9.17 44.278-9.17 66.91 0 19.406-7.39 51.57-17.97 78.214-15.528 39.074-34.428 58.888-56.186 58.888-50.18 0-74.034-114.020-74.148-142.628 0-0.038 0-0.078 0-0.116 0-20.508-2.322-41.042-6.9-61.028l-0.054-0.238h-17.24c-25.792 0-46.822-18.15-47.22-40.59l-3.728-55.854c-0.848-12.71 3.658-25.334 12.36-34.638 6.388-6.828 14.718-11.494 23.73-13.504 1.914-18.552 1.29-55.62-27.478-84.386-48.732-48.732-48.708-74.81-48.658-131.948l0.004-392.77c0-36.556 29.738-66.296 66.296-66.296h247.818c17.708 0 34.358 6.896 46.878 19.418 12.522 12.522 19.42 29.172 19.418 46.882l-0.012 386.968 0.010 7.59zM470.684 817.142c0 0.010 0 0.018 0 0.030 0 12.768 5.564 41.196 14.868 66.674 12.318 33.72 23.384 42.068 25.576 42.452 2.646 0 13.45-8.918 24.854-37.628 9.76-24.574 15.592-52.738 15.592-65.77 0-22.57 2.696-45.014 8.014-66.91h-95.086c4.094 20.104 6.172 40.638 6.182 61.152zM395.468 657.298l3.76 56.328c0.024 0.376 0.038 0.748 0.038 1.124 0 3 5.392 7.536 13.522 7.536h26.678c1.262-0.298 2.564-0.46 3.884-0.46h138.562c1.33 0 2.64 0.158 3.91 0.46h25.938c8.128 0 13.52-4.536 13.52-7.536 0-0.42 0.016-0.84 0.048-1.258l4.202-56.090c0.262-3.508-0.908-6.858-3.3-9.434-2.39-2.574-5.644-3.996-9.16-3.996h-209.13c-3.496 0-6.736 1.406-9.124 3.96-2.394 2.552-3.582 5.878-3.348 9.366z" />
<glyph unicode="&#xea07;" d="M504.872 890.814v-360.434c0-13.716 11.118-24.836 24.836-24.836h41.050v410.104h-41.050c-13.718 0-24.836-11.12-24.836-24.834z" />
<glyph unicode="&#xea08;" d="M539.874 915.648h30.87v-410.11h-30.87v410.11z" />
<glyph unicode="&#xea09;" d="M641.294 871.852v-728.032c-39.432 0-71.398 22.88-71.398 62.312v737.12c0 0 13.258 0.44 26.95-5.262 25.996-10.826 44.448-36.244 44.448-66.138z" />
<glyph unicode="&#xea0a;" d="M187.154 832.726l193.756-361.446 36.104 19.852c12.088 6.48 16.634 21.532 10.154 33.62l-170.29 317.668c-6.48 12.088-21.532 16.634-33.62 10.154l-36.104-19.848z" />
<glyph unicode="&#xea0b;" d="M596.838 302.042v635.932c-8.316 3.392-17.406 5.276-26.942 5.276v0-737.12c0-39.432 31.966-62.31 71.398-62.31v0 75.83c-2.628 2.65-5.39 5.166-8.278 7.534-22.542 18.508-36.178 45.69-36.178 74.858z" />
<glyph unicode="&#xea0c;" d="M212.728 846.786l-25.574-14.060 193.756-361.446 25.532 14.038z" />
<glyph unicode="&#xea0d;" d="M178.162 852.606c-34.754-18.63-47.824-61.906-29.196-96.66l345.918-645.296c13.088-27.070 41.55-45.314 74.048-43.4 0.3 0.018 0.602 0.038 0.902 0.058 39.104 2.748 70.226 35.236 71.422 74.42 1.334 43.642-33.65 79.438-76.99 79.438-15.162 0-29.288-4.398-41.204-11.962l-344.9 643.402z" />
<glyph unicode="&#xea0e;" d="M529.31 104.83l-345.916 645.296c-14.010 26.132-10.090 57.082 7.49 78.748l-12.72 23.73c-34.754-18.63-47.824-61.906-29.196-96.66l345.918-645.296c13.088-27.066 41.552-45.282 74.046-43.37-17.342 7.276-31.468 20.692-39.622 37.552z" />
<glyph unicode="&#xea0f;" d="M580.556 145.392c0-9.299-7.539-16.838-16.838-16.838s-16.838 7.539-16.838 16.838c0 9.299 7.539 16.838 16.838 16.838s16.838-7.539 16.838-16.838z" />
<glyph unicode="&#xea10;" d="M827.416 522.296c-40.234 0-72.966-32.734-72.966-72.966v-402.198c0-42.708-34.748-77.456-77.456-77.456s-77.456 34.748-77.456 77.456v10.034c33.356 13.778 57.404 46.472 58.55 83.966 0.784 25.642-8.608 49.888-26.438 68.274-12.598 12.986-28.238 21.828-45.358 25.918v688.34c21.868-7.112 37.722-27.69 37.722-51.902v-607.456c0-9.3 7.536-16.838 16.838-16.838s16.838 7.54 16.838 16.838v607.458c0 48.652-39.582 88.236-88.236 88.236-9.302 0-16.838-7.54-16.838-16.838v-10.762h-22.908c-22.978 0-41.674-18.694-41.674-41.674v-360.434c0-22.978 18.692-41.674 41.674-41.674h22.908v-251.448c-7.702-0.96-15.242-2.852-22.448-5.664l-125.374 233.882 20.174 10.814c9.812 5.258 16.986 14.022 20.206 24.68s2.096 21.928-3.164 31.738l-170.29 317.668c-5.258 9.814-14.022 16.988-24.678 20.206-10.664 3.22-21.928 2.094-31.738-3.166l-20.176-10.816-2.124 3.96c-2.11 3.936-5.698 6.872-9.972 8.164-4.27 1.288-8.884 0.83-12.824-1.28-20.772-11.132-35.962-29.69-42.776-52.252-6.816-22.564-4.436-46.428 6.7-67.2l345.758-645.004c15.898-32.562 48.48-52.714 84.368-52.712 0.532 0 1.070 0.048 1.606 0.056v-3.112c0-61.278 49.854-111.132 111.132-111.132s111.132 49.854 111.132 111.132v402.198c0 21.662 17.626 39.29 39.29 39.29 21.662 0 39.29-17.626 39.29-39.29v-140.274c0-9.3 7.536-16.838 16.838-16.838s16.838 7.54 16.838 16.838v140.274c-0.002 40.232-32.734 72.966-72.968 72.966zM529.706 522.296c-4.41 0-7.998 3.588-7.998 7.998v360.432c0 4.41 3.588 7.998 7.998 7.998h22.908v-376.428h-22.908zM231.216 837.65c2.536 1.36 4.906 0.964 6.088 0.606 1.184-0.356 3.372-1.336 4.732-3.878l170.292-317.67c1.36-2.54 0.966-4.906 0.608-6.088-0.356-1.184-1.338-3.374-3.878-4.734l-20.176-10.816-177.846 331.762 20.18 10.818zM510.044 117.892c-0.102 0.212-0.208 0.42-0.318 0.626l-345.914 645.296c-6.886 12.844-8.358 27.602-4.144 41.552 2.534 8.394 6.946 15.892 12.858 22.034l0.728-1.358c0.048-0.094 0.086-0.194 0.136-0.288l193.756-361.446c0.038-0.072 0.088-0.132 0.128-0.202l140.954-262.944c2.212-4.124 6.040-7.144 10.568-8.332 4.526-1.19 9.342-0.438 13.296 2.070 9.63 6.112 20.758 9.34 32.184 9.34 16.422 0 31.768-6.496 43.206-18.288 11.434-11.786 17.454-27.342 16.954-43.798-0.932-30.468-25.43-56.006-55.774-58.138-24.842-1.73-47.826 11.556-58.618 33.876z" />
<glyph unicode="&#xea11;" d="M580.556 145.302c0-9.299-7.539-16.838-16.838-16.838s-16.838 7.539-16.838 16.838c0 9.299 7.539 16.838 16.838 16.838s16.838-7.539 16.838-16.838z" />
<glyph unicode="&#xea12;" d="M365.984 620.724h-125.878c-25.54 0-46.246-20.706-46.246-46.246v-317.016c0-12.924 10.476-23.402 23.402-23.402h148.724l-0.002 386.664z" />
<glyph unicode="&#xea13;" d="M304.596-63.812c-9.426 0-17.064 7.64-17.064 17.064v67.024c0 9.424 7.638 17.064 17.064 17.064s17.064-7.64 17.064-17.064v-67.024c0-9.424-7.64-17.064-17.064-17.064z" />
<glyph unicode="&#xea14;" d="M366.832-64c-9.426 0-17.064 7.64-17.064 17.064v67.024c0 9.424 7.638 17.064 17.064 17.064s17.064-7.64 17.064-17.064v-67.024c-0.002-9.426-7.64-17.064-17.064-17.064z" />
<glyph unicode="&#xea15;" d="M429.066-64c-9.426 0-17.064 7.64-17.064 17.064v67.024c0 9.424 7.638 17.064 17.064 17.064s17.064-7.64 17.064-17.064v-67.024c0-9.426-7.64-17.064-17.064-17.064z" />
<glyph unicode="&#xea16;" d="M491.302-64c-9.426 0-17.064 7.64-17.064 17.064v67.024c0 9.424 7.638 17.064 17.064 17.064s17.064-7.64 17.064-17.064v-67.024c0-9.426-7.64-17.064-17.064-17.064z" />
<glyph unicode="&#xea17;" d="M553.538-64c-9.426 0-17.064 7.64-17.064 17.064v67.024c0 9.424 7.638 17.064 17.064 17.064s17.064-7.64 17.064-17.064v-67.024c-0.002-9.426-7.642-17.064-17.064-17.064z" />
<glyph unicode="&#xea18;" d="M615.772-64c-9.426 0-17.064 7.64-17.064 17.064v67.024c0 9.424 7.638 17.064 17.064 17.064s17.064-7.64 17.064-17.064v-67.024c0-9.426-7.64-17.064-17.064-17.064z" />
<glyph unicode="&#xea19;" d="M678.008-64c-9.426 0-17.064 7.64-17.064 17.064v67.024c0 9.424 7.638 17.064 17.064 17.064s17.064-7.64 17.064-17.064v-67.024c0-9.426-7.638-17.064-17.064-17.064z" />
<glyph unicode="&#xea1a;" d="M740.244-64c-9.426 0-17.064 7.64-17.064 17.064v67.024c0 9.424 7.638 17.064 17.064 17.064s17.064-7.64 17.064-17.064v-67.024c-0.002-9.426-7.64-17.064-17.064-17.064z" />
<glyph unicode="&#xea1b;" d="M802.478-64c-9.426 0-17.064 7.64-17.064 17.064v67.024c0 9.424 7.638 17.064 17.064 17.064s17.064-7.64 17.064-17.064v-67.024c0-9.426-7.638-17.064-17.064-17.064z" />
<glyph unicode="&#xea1c;" d="M261.818 574.056v-339.996h110.422v386.664h-125.88c-5.472 0-10.698-0.998-15.568-2.744 18.066-6.438 31.026-23.644 31.026-43.924z" />
<glyph unicode="&#xea1d;" d="M240.528 620.724h517.456c33.996 0 61.558-27.56 61.558-61.56v-539.080h-532.346v553.972c0 25.774-20.894 46.668-46.668 46.668z" />
<glyph unicode="&#xea1e;" d="M347.064 54.212h412.608c14.218 0 25.742 11.526 25.742 25.742v479.212c0 15.15-12.282 27.434-27.434 27.434h-437.63c0.642-4.088 0.974-8.276 0.974-12.542v-494.1c-0.002-14.22 11.522-25.746 25.74-25.746z" />
<glyph unicode="&#xea1f;" d="M383.038 274.24c0-9.424-7.64-17.064-17.064-17.064s-17.064 7.64-17.064 17.064c0 9.424 7.64 17.064 17.064 17.064s17.064-7.64 17.064-17.064z" />
<glyph unicode="&#xea20;" d="M457.73 274.24c0-9.424-7.64-17.064-17.064-17.064s-17.064 7.64-17.064 17.064c0 9.424 7.64 17.064 17.064 17.064s17.064-7.64 17.064-17.064z" />
<glyph unicode="&#xea21;" d="M532.42 274.24c0-9.424-7.64-17.064-17.064-17.064s-17.064 7.64-17.064 17.064c0 9.424 7.64 17.064 17.064 17.064s17.064-7.64 17.064-17.064z" />
</font>
</defs>
</svg>
